<svg width="1202" height="631" viewBox="0 0 1202 631" fill="none" xmlns="http://www.w3.org/2000/svg">
<g clip-path="url(#clip0_1969_27264)">
<mask id="mask0_1969_27264" style="mask-type:alpha" maskUnits="userSpaceOnUse" x="-329" y="0" width="1531" height="1021">
<path d="M1158.13 0V53.9905L1102.74 85.9804V22.0025L1140.84 0H1136.76L1101.72 20.2341L1066.68 0H1062.6L1100.7 22.0025V85.9804L1045.35 54.015V52.8123L1045.31 52.8388V0H1043.26V54.015L986.382 86.8667L985.872 87.1588V150.226C984.157 150.681 982.885 152.229 982.885 154.087C982.885 155.945 984.157 157.495 985.872 157.949V221.026L1043.3 254.194V319.354L987.913 351.344V286.174L930.48 253.006V251.824L929.455 252.414L928.437 251.826V253.002L871.512 285.878L871.002 286.172V354.873L926.61 322.756C927.337 323.49 928.343 323.947 929.458 323.947C930.574 323.947 931.578 323.492 932.303 322.756L985.872 353.691V487.558L1044.33 453.798L1100.74 486.376L1157.16 518.958L1101.76 550.95L1100.74 550.362V551.54L1099.72 552.13L1100.74 552.718V619.061L1158.18 652.229V714.122C1156.46 714.575 1155.19 716.123 1155.19 717.981C1155.19 720.197 1156.98 721.99 1159.2 721.99C1161.41 721.99 1163.2 720.197 1163.2 717.981C1163.2 717.618 1163.14 717.273 1163.05 716.936L1202 694.441V692.083L1162.04 715.161C1161.55 714.663 1160.92 714.308 1160.22 714.122V652.231L1202 628.101V625.742L1160.22 649.873V585.889L1202 561.758V559.402L1159.2 584.12L1103.8 552.13L1158.18 520.724L1159.2 520.136L1160.22 520.724L1202 544.857V542.498L1161.24 518.958L1202 495.416V493.057L1160.22 517.19V453.206L1202 429.075V426.717L1189.43 433.978L1159.2 451.437L1105.61 420.491C1105.71 420.156 1105.77 419.809 1105.77 419.443C1105.77 419.08 1105.71 418.735 1105.61 418.4L1159.2 387.453L1202 412.172V409.815L1160.22 385.683V321.701L1202 345.831V343.473L1161.26 319.945L1202 296.419V294.06L1160.26 318.162V254.184L1202 230.082V227.724L1158.73 252.712L1158.22 253.004V318.188L1158.18 318.162V385.685L1104.61 416.625C1104.11 416.125 1103.48 415.77 1102.78 415.584V286.182L1045.35 253.014V186.678L990.742 155.143C990.834 154.804 990.902 154.455 990.902 154.087C990.902 153.724 990.834 153.379 990.744 153.042L1044.84 121.803L1045.35 121.511V56.3755L1100.7 88.339V222.194L1156.31 190.078C1157.03 190.811 1158.04 191.264 1159.15 191.264C1161.37 191.264 1163.16 189.471 1163.16 187.255C1163.16 185.397 1161.89 183.849 1160.17 183.394V55.2422L1202 31.0833V28.7269L1160.26 52.8307V0H1158.13ZM1102.74 88.339L1158.13 56.349V120.329L1102.74 152.319V88.339ZM987.913 150.226V88.339L1043.3 56.349V120.329L989.736 151.267C989.242 150.769 988.611 150.412 987.913 150.226ZM1102.74 154.677L1158.13 122.689V183.396C1156.42 183.849 1155.15 185.399 1155.15 187.255C1155.15 187.621 1155.21 187.968 1155.3 188.303L1102.74 218.657V154.677ZM987.913 219.844V157.949C988.611 157.765 989.236 157.412 989.732 156.915L1043.3 187.858V251.836L987.913 219.844ZM873.045 287.352L928.437 255.362V316.077C926.722 316.53 925.45 318.08 925.45 319.938C925.45 320.3 925.516 320.645 925.606 320.978L873.045 351.334V287.352ZM933.312 320.978C933.401 320.645 933.465 320.3 933.465 319.938C933.465 318.08 932.195 316.53 930.48 316.077V255.364L985.872 287.354V351.332L933.312 320.978ZM1073.04 335.347L1045.35 319.352V255.372L1100.74 287.365V351.342L1073.04 335.347ZM1073.04 401.686L1045.35 385.689V321.711L1073.04 337.706L1100.74 353.703V415.584C1100.04 415.768 1099.41 416.125 1098.92 416.627L1073.04 401.686ZM987.913 353.703L1043.3 321.711V385.687L987.913 417.679V353.703ZM987.913 420.039L1043.3 388.047V452.027L987.913 484.021V420.039ZM1045.35 452.027V388.049L1073.04 404.042L1097.91 418.402C1097.82 418.737 1097.76 419.082 1097.76 419.443C1097.76 421.303 1099.03 422.851 1100.74 423.305V484.017L1045.35 452.027ZM1102.78 485.195V423.305C1103.48 423.119 1104.11 422.765 1104.61 422.267L1158.18 453.206V517.19L1102.78 485.195ZM1102.78 617.881V553.899L1158.18 585.891V649.873L1102.78 617.881ZM985.962 0V18.3065C984.247 18.7598 982.977 20.3077 982.977 22.1659C982.977 22.2946 983.004 22.415 983.014 22.5417L930.568 52.8307V0H928.437V53.9905L873.045 85.9804V22.0025L911.145 0H907.062L872.025 20.2341L836.987 0H832.9L871.002 22.0025V85.9785L815.61 53.9885V0H813.569V52.8082H813.565V120.331L757.153 152.911L701.759 120.919L757.663 88.631L758.173 88.3369V21.9964L759.194 21.4063L758.173 20.8161V0H756.134V19.6379L722.129 0H718.045L755.111 21.4063L729.948 35.9392L699.72 53.3983L644.326 21.4063L669.49 6.87335L681.391 0H677.308L643.305 19.6379V0H641.264V19.6379L607.258 0H603.173L641.264 21.9964V83.8895C639.547 84.3428 638.276 85.8926 638.276 87.7508C638.276 88.1143 638.341 88.4595 638.433 88.7944L584.337 120.037L583.827 120.329V189.026L642.281 155.268L699.718 188.44L757.153 155.27L814.588 188.44L871.002 155.86V216.566C869.287 217.018 868.018 218.568 868.018 220.426C868.018 222.639 869.812 224.434 872.023 224.434C874.235 224.434 876.03 222.639 876.03 220.426C876.03 220.06 875.966 219.715 875.875 219.38L929.968 188.14L930.48 187.846V55.2422L983.726 24.4876C984.453 25.5046 985.637 26.1743 986.984 26.1743C989.197 26.1743 990.991 24.3795 990.991 22.1659C990.991 20.3077 989.72 18.7578 988.003 18.3044V0H985.962ZM700.74 55.1666L756.134 23.1768V87.1567L700.74 119.151V55.1666ZM646.139 88.7923C646.227 88.4575 646.29 88.1122 646.29 87.7508C646.29 85.8926 645.02 84.3428 643.305 83.8895V23.1768L698.699 55.1666V119.151L646.139 88.7923ZM815.608 120.329V56.349L871.002 88.339V152.321L815.608 120.329ZM873.045 88.339L928.437 56.349V120.329L873.045 152.319V88.339ZM643.305 91.6123C644.006 91.4265 644.634 91.0691 645.128 90.5688L697.676 120.921L643.305 152.321V91.6123ZM585.868 121.511L639.439 90.5709C639.933 91.0692 640.564 91.4265 641.264 91.6123V153.497L585.868 185.489V121.511ZM759.194 154.089L814.588 122.099L869.983 154.089L814.588 186.081L759.194 154.089ZM699.718 122.099L700.74 122.689V122.687L755.111 154.089L699.718 186.081L644.324 154.089L698.699 122.687V122.689L699.718 122.099ZM873.045 216.566V154.679L874.064 154.089L928.437 122.689V186.667L874.868 217.604C874.374 217.105 873.744 216.75 873.045 216.566ZM583.827 0V53.9885L528.434 85.9825V21.9985L566.525 0H562.44L528.434 19.6379V0H526.392V87.1669L469.47 120.043L468.959 120.335V189.036L524.571 156.92C525.296 157.651 526.3 158.106 527.413 158.106C529.628 158.106 531.422 156.311 531.422 154.097C531.422 152.239 530.15 150.689 528.434 150.238V88.3431L585.358 55.4628L585.868 55.1687V0H583.827ZM470.999 121.517L526.392 89.5233V150.238C524.68 150.691 523.406 152.239 523.406 154.097C523.406 154.463 523.471 154.808 523.563 155.143L470.999 185.499V121.517ZM468.959 0V52.8102L413.566 20.8182V0H411.524V20.8141L356.131 52.8041V0H354.089V52.8041L326.393 36.8091L298.694 20.8141V0H296.652V20.8141L241.259 52.8041V0H239.219V52.8041L183.826 20.812V0H181.784V19.6359L147.784 0H143.699L180.762 21.4042L155.6 35.9371L125.37 53.3962L71.7852 22.4497C71.8771 22.1148 71.9403 21.7698 71.9403 21.4042C71.9403 21.0408 71.8771 20.6936 71.7852 20.3588L107.039 0H102.956L70.7788 18.5822C70.0501 17.8492 69.0478 17.3959 67.9352 17.3959C65.7204 17.3959 63.9281 19.1907 63.9281 21.4042C63.9281 23.6157 65.7204 25.4127 67.9352 25.4127C69.0478 25.4127 70.0501 24.9594 70.7788 24.2242L124.35 55.1647V122.687L183.313 88.6289L183.826 88.3348V23.1726L239.219 55.1626V122.677L294.829 90.5627C295.323 91.063 295.952 91.4163 296.652 91.6021V154.671L356.131 189.018V122.679L413.566 155.848V87.1505L357.151 54.5725L412.539 22.5865L470.999 56.349V0H468.959ZM326.393 103.145L301.525 88.7861C301.617 88.4533 301.682 88.1061 301.682 87.7427C301.682 85.8824 300.41 84.3347 298.694 83.8813V23.1747L326.393 39.1675L354.089 55.1626V119.141L326.393 103.145ZM241.259 55.1626L296.652 23.1747V83.8813C294.938 84.3367 293.666 85.8824 293.666 87.7427C293.666 88.1061 293.731 88.4513 293.821 88.7861L241.259 119.141V55.1626ZM126.391 55.1647L181.784 23.1747V87.1547L126.391 119.149V55.1647ZM356.131 120.321V56.3409L411.524 88.3307V152.313L356.131 120.321ZM298.694 153.491V91.6021C299.394 91.4183 300.025 91.063 300.519 90.5648L326.393 105.506L354.089 121.499V185.479L298.694 153.491ZM-280.727 274.89C-280.727 276.748 -279.457 278.296 -277.742 278.749V340.64L-329 370.247V372.604L-276.723 342.411L-221.328 374.403L-275.699 405.807V405.805L-276.721 406.395L-277.742 405.805V405.807L-329 376.202V378.56L-278.761 407.573L-329 436.588V438.946L-277.742 409.341V473.325L-329 502.93V505.287L-306.95 492.551L-276.723 475.094L-223.136 506.04C-223.228 506.375 -223.294 506.722 -223.294 507.088C-223.294 507.451 -223.228 507.796 -223.136 508.131L-276.721 539.078L-329 508.883V511.243L-277.742 540.848V604.83L-329 575.227V577.586L-278.785 606.586L-329 635.587V637.945L-277.785 608.369V672.347L-329 701.923V704.28L-276.254 673.819L-275.744 673.527V608.342L-275.699 608.369V540.846L-222.13 509.906C-221.636 510.406 -221.007 510.761 -220.307 510.947V574.016L-163.893 606.594L-219.797 638.879L-220.307 639.171V705.542L-273.831 736.453C-274.556 735.72 -275.564 735.267 -276.674 735.267C-278.889 735.267 -280.684 737.06 -280.684 739.275C-280.684 741.132 -279.41 742.682 -277.695 743.133V871.289L-329 900.922V903.281L-277.785 873.7V937.684L-329 967.263V969.621L-277.695 939.99V940.055L-219.242 906.297L-160.786 940.055V872.516L-103.904 839.664L-103.396 839.372V776.303C-101.679 775.85 -100.407 774.302 -100.407 772.444C-100.407 770.228 -102.204 768.435 -104.415 768.435C-106.629 768.435 -108.422 770.228 -108.422 772.444C-108.422 772.807 -108.358 773.154 -108.269 773.489L-162.36 804.73L-162.87 805.022V870.155L-218.221 838.19V706.661L-161.852 674.109L-103.396 707.867V640.351L-49.8252 609.414C-49.3312 609.913 -48.7025 610.268 -48.0023 610.452V673.525L6.60135 705.06C6.51154 705.395 6.44617 705.74 6.44617 706.105C6.44617 706.469 6.51154 706.816 6.60135 707.151L-47.4919 738.393L-48.0023 738.687V871.289L-101.248 902.043C-101.975 901.026 -103.161 900.357 -104.504 900.357C-106.719 900.357 -108.514 902.152 -108.514 904.365C-108.514 906.223 -107.24 907.773 -105.527 908.224V973.213L-48.0921 940.041V1005.21L-20.7464 1021H-16.6617L-46.0508 1004.03V940.043L9.34286 972.035V1021H11.3842V970.855L-44.975 938.307L10.4513 906.297L64.0383 937.241C63.9465 937.576 63.8812 937.923 63.8812 938.287C63.8812 940.5 65.6755 942.295 67.8883 942.295C70.1031 942.295 71.8975 940.5 71.8975 938.287C71.8975 936.429 70.6257 934.881 68.909 934.427V806.202L125.325 773.62L180.717 805.612L124.815 837.9L124.303 838.194V904.535L123.284 905.125L124.303 905.713V970.877L67.38 1003.75L66.8697 1004.05V1021H68.909V1005.23L124.303 973.236V1021H126.344V973.236L181.738 1005.23V1006.41L182.76 1005.82L209.049 1021H213.131L184.802 1004.64L237.35 974.287C237.844 974.787 238.474 975.141 239.173 975.327V1021H241.214V975.327C241.914 975.143 242.545 974.787 243.039 974.285L296.609 1005.22V1021H298.651V1005.22L354.044 973.227V1021H356.084V972.051L411.477 940.061V1004.04L382.113 1021H386.195L413.008 1005.52L413.519 1005.22V940.061L466.083 970.418C465.991 970.755 465.928 971.1 465.928 971.465C465.928 973.679 467.722 975.474 469.935 975.474C472.148 975.474 473.94 973.679 473.94 971.465C473.94 969.607 472.67 968.057 470.954 967.604V904.532L411.477 870.182V937.703L356.084 969.693V903.354L297.63 937.113L241.214 904.535V842.642C242.929 842.188 244.2 840.64 244.2 838.782C244.2 838.417 244.137 838.069 244.047 837.735L298.138 806.496L298.651 806.204V737.505L240.197 771.263L182.76 738.091L125.325 771.259L68.909 738.679V673.521L127.367 639.763L68.909 606V538.479L9.94296 572.538L9.43265 572.83V637.994L-43.1276 607.638C-43.0378 607.303 -42.9745 606.956 -42.9745 606.59C-42.9745 604.732 -44.2442 603.184 -45.9609 602.731V474.5L10.9637 441.621L11.474 441.329V372.628L-47.4919 406.685L-48.0023 406.977V473.325L-104.415 505.908L-159.814 473.914L-103.904 441.621L-103.396 441.329V372.628L-162.36 406.685L-162.87 406.977V538.486L-215.434 508.131C-215.343 507.796 -215.279 507.451 -215.279 507.088C-215.279 505.228 -216.549 503.678 -218.266 503.226V440.155L-274.68 407.573L-219.286 375.583L-218.266 376.171V374.993L-217.245 374.403L-218.266 373.813V307.47L-272.867 275.935C-272.778 275.599 -272.714 275.253 -272.714 274.89C-272.714 272.676 -274.507 270.882 -276.721 270.882C-278.932 270.882 -280.727 272.676 -280.727 274.89ZM-275.699 340.64V278.751C-275.001 278.566 -274.37 278.208 -273.876 277.712L-220.307 308.65V372.632L-275.699 340.64ZM-45.9609 408.159L9.43265 376.165V440.149L-45.9609 472.139V408.159ZM-160.831 408.159L-105.437 376.165V440.149L-160.831 472.139V408.159ZM-275.699 473.325V409.341L-220.307 441.333V503.226C-221.005 503.412 -221.634 503.766 -222.128 504.264L-275.699 473.325ZM-103.396 507.676L-48.0023 475.682V539.666L-66.1252 550.131L-103.396 571.656V507.676ZM-133.132 555.661L-160.831 539.666V475.686L-105.437 507.676V571.654L-133.132 555.661ZM-218.266 572.834V510.947C-217.566 510.761 -216.937 510.406 -216.443 509.908L-162.87 540.846V604.824L-218.266 572.834ZM11.474 574.012L66.8697 542.018V606L11.474 637.994V574.012ZM-103.396 574.016L-71.741 555.734L-48.0023 542.024V602.731C-49.717 603.184 -50.9867 604.732 -50.9867 606.59C-50.9867 606.956 -50.9235 607.303 -50.8336 607.638L-103.396 637.994V574.016ZM-133.132 621.999L-160.831 606.002V542.024L-133.132 558.019L-105.437 574.016V637.992L-133.132 621.999ZM12.4947 639.763L39.6628 624.07L67.8904 607.771L123.284 639.763L67.8904 671.753L12.4947 639.763ZM-160.831 672.341V608.363L-133.132 624.358L-105.437 640.353V704.331L-160.831 672.341ZM-218.266 640.353L-162.87 608.363V672.341L-218.266 704.331V640.353ZM-45.9609 672.343V610.454C-45.2608 610.268 -44.63 609.913 -44.136 609.417L9.43265 640.355V702.244C8.73453 702.43 8.10376 702.785 7.60974 703.283L-45.9609 672.343ZM14.3074 707.149C14.3992 706.814 14.4605 706.469 14.4605 706.105C14.4605 704.247 13.1907 702.697 11.474 702.244V641.531L66.8697 673.523V737.505L14.3074 707.149ZM-275.656 743.133C-273.939 742.682 -272.667 741.132 -272.667 739.275C-272.667 738.91 -272.733 738.565 -272.823 738.23L-220.262 707.874V771.856L-275.656 803.844V743.133ZM11.474 709.965C12.1762 709.779 12.805 709.426 13.299 708.925L65.8429 739.273L11.474 770.671V709.965ZM-45.9609 739.866L7.60974 708.927C8.10376 709.426 8.73248 709.779 9.43265 709.965V771.849L8.41199 772.442H8.41403L-45.9609 803.844V739.866ZM181.738 803.844L127.367 772.442L182.76 740.45L238.152 772.442L183.779 803.844L182.76 804.432L181.738 803.844ZM12.4947 772.442L67.8862 740.452L68.909 741.042V741.038L123.284 772.442L67.8904 804.432L12.4947 772.442ZM241.214 834.919V773.034L296.609 741.042V805.022L243.039 835.958C242.545 835.46 241.914 835.104 241.214 834.919ZM184.802 805.612L239.173 774.21V834.921C238.472 835.104 237.842 835.462 237.348 835.96L184.802 805.612ZM11.474 838.19V774.21L66.8697 806.204V870.18L11.474 838.19ZM-45.9609 806.204L9.43265 774.212V838.19L-45.9609 870.18V806.204ZM-275.656 806.204L-220.262 774.212V838.19L-275.656 870.18V806.204ZM-160.831 806.204L-107.258 775.266C-106.764 775.762 -106.135 776.119 -105.437 776.303V838.19L-160.831 870.18V806.204ZM183.779 871.364V807.382L236.341 837.739C236.251 838.072 236.186 838.417 236.186 838.782C236.186 840.638 237.456 842.188 239.173 842.639V903.354L183.779 871.364ZM126.344 839.374L181.738 807.382V871.364L126.344 903.354V839.374ZM-45.9609 872.54L9.43265 840.55V904.528L-45.9609 936.518V872.54ZM-218.221 904.528V840.55L-162.87 872.516V873.719L-162.827 873.692V936.518L-218.221 904.528ZM-275.656 872.54L-220.262 840.55V904.528L-275.656 936.518V872.54ZM11.474 904.528V840.553L66.8697 872.543V934.427C66.1695 934.611 65.5407 934.966 65.0467 935.465L11.474 904.528ZM127.367 905.125L152.53 890.592L182.758 873.133L238.152 905.125L212.988 919.658L182.76 937.113L127.367 905.125ZM-103.484 908.224C-101.769 907.771 -100.497 906.223 -100.497 904.365C-100.497 904.236 -100.524 904.116 -100.536 903.991L-48.0921 873.7V937.684L-103.484 969.678V908.224ZM413.519 937.703V873.721L468.912 905.713V967.604C468.214 967.79 467.585 968.145 467.091 968.641L413.519 937.703ZM298.651 938.883L354.044 906.893V970.857L298.651 1002.85V938.883ZM244.049 972.507C244.137 972.174 244.2 971.829 244.2 971.465C244.2 969.607 242.929 968.057 241.214 967.604V906.893L296.609 938.883V1002.86L244.049 972.507ZM184.802 938.295L239.173 906.893V967.604C238.472 967.79 237.844 968.145 237.35 968.645L184.802 938.295ZM126.344 970.877V906.893L181.738 938.885V1002.87L126.344 970.877ZM183.779 940.063L236.341 970.422C236.251 970.759 236.186 971.102 236.186 971.465C236.186 971.831 236.251 972.176 236.341 972.509L183.779 1002.87V940.063ZM-273.831 1001.79C-274.556 1001.06 -275.564 1000.61 -276.674 1000.61C-277.789 1000.61 -278.795 1001.06 -279.518 1001.79L-329 973.219V975.578L-280.529 1003.57C-280.616 1003.91 -280.684 1004.25 -280.684 1004.62C-280.684 1006.47 -279.41 1008.02 -277.695 1008.48V1021H-275.656V1008.48C-273.939 1008.02 -272.667 1006.47 -272.667 1004.62C-272.667 1004.25 -272.733 1003.91 -272.825 1003.57L-220.262 973.213V1021H-218.221V969.678L-273.831 1001.79Z" fill="url(#paint0_linear_1969_27264)"/>
</mask>
<g mask="url(#mask0_1969_27264)">
<rect x="26" width="1176" height="524" fill="#D9D9D9"/>
</g>
</g>
<defs>
<linearGradient id="paint0_linear_1969_27264" x1="-61.2537" y1="1244.2" x2="983.466" y2="-262.939" gradientUnits="userSpaceOnUse">
<stop stop-color="#C8CACC"/>
<stop offset="0.348564" stop-color="#EAEBEB"/>
<stop offset="0.571325" stop-color="#EAEBEB"/>
<stop offset="0.769218" stop-color="#EAEBEB"/>
<stop offset="0.975951" stop-color="white"/>
<stop offset="0.988387" stop-color="white"/>
<stop offset="1" stop-color="white"/>
</linearGradient>
<clipPath id="clip0_1969_27264">
<rect width="1202" height="631" fill="white"/>
</clipPath>
</defs>
</svg>
