<svg width="1440" height="663" viewBox="0 0 1440 663" fill="none" xmlns="http://www.w3.org/2000/svg">
<g clip-path="url(#clip0_1969_27268)">
<path d="M674.065 623.719C674.515 623.719 674.946 623.541 675.264 623.223C675.582 622.905 675.761 622.473 675.761 622.023C675.761 621.573 675.582 621.142 675.264 620.824C674.946 620.505 674.515 620.327 674.065 620.327H657.953V613.541H674.065C674.515 613.541 674.946 613.363 675.264 613.044C675.582 612.726 675.761 612.295 675.761 611.845C675.761 611.395 675.582 610.963 675.264 610.645C674.946 610.327 674.515 610.148 674.065 610.148H536.692C536.242 610.148 535.811 610.327 535.493 610.645C535.175 610.963 534.996 611.395 534.996 611.845C534.996 612.295 535.175 612.726 535.493 613.044C535.811 613.363 536.242 613.541 536.692 613.541H552.804V620.327H536.692C536.242 620.327 535.811 620.505 535.493 620.824C535.175 621.142 534.996 621.573 534.996 622.023C534.996 622.473 535.175 622.905 535.493 623.223C535.811 623.541 536.242 623.719 536.692 623.719H552.804V630.505H536.692C536.242 630.505 535.811 630.684 535.493 631.002C535.175 631.32 534.996 631.751 534.996 632.201C534.996 632.651 535.175 633.083 535.493 633.401C535.811 633.719 536.242 633.898 536.692 633.898H552.804V640.683H538.388C537.488 640.683 536.626 641.041 535.99 641.677C535.354 642.313 534.996 643.176 534.996 644.076C534.996 644.976 535.354 645.839 535.99 646.475C536.626 647.111 537.488 647.469 538.388 647.469H552.111C552.011 647.74 551.959 648.027 551.956 648.317V672.066C551.956 672.741 552.224 673.388 552.701 673.865C553.178 674.343 553.825 674.611 554.5 674.611C555.174 674.611 555.821 674.343 556.299 673.865C556.776 673.388 557.044 672.741 557.044 672.066V648.317C557.041 648.027 556.988 647.74 556.888 647.469H653.869C653.769 647.74 653.716 648.027 653.713 648.317V672.066C653.713 672.741 653.982 673.388 654.459 673.865C654.936 674.343 655.583 674.611 656.257 674.611C656.932 674.611 657.579 674.343 658.056 673.865C658.533 673.388 658.801 672.741 658.801 672.066V648.317C658.798 648.027 658.746 647.74 658.646 647.469H672.369C673.269 647.469 674.131 647.111 674.768 646.475C675.404 645.839 675.761 644.976 675.761 644.076C675.761 643.176 675.404 642.313 674.768 641.677C674.131 641.041 673.269 640.683 672.369 640.683H657.953V633.898H674.065C674.515 633.898 674.946 633.719 675.264 633.401C675.582 633.083 675.761 632.651 675.761 632.201C675.761 631.751 675.582 631.32 675.264 631.002C674.946 630.684 674.515 630.505 674.065 630.505H657.953V623.719H674.065ZM556.196 613.541H654.561V620.327H556.196V613.541ZM654.561 640.683H556.196V633.898H654.561V640.683ZM654.561 630.505H556.196V623.719H654.561V630.505Z" fill="#3F3D56"/>
<path d="M156.815 552.52C156.815 522.56 132.517 451.467 102.544 451.467C72.5713 451.467 48.2734 522.56 48.2734 552.52C48.2734 566.917 53.9912 580.725 64.169 590.905C74.3468 601.085 88.1508 606.804 102.544 606.804C116.938 606.804 130.742 601.085 140.92 590.905C151.097 580.725 156.815 566.917 156.815 552.52H156.815Z" fill="#E6E6E6"/>
<path d="M143.241 552.52C143.241 522.56 118.943 451.467 88.97 451.467C58.9971 451.467 34.6992 522.56 34.6992 552.52C34.6992 566.917 40.417 580.725 50.5948 590.905C60.7725 601.085 74.5765 606.804 88.9701 606.804C103.364 606.804 117.168 601.085 127.345 590.905C137.523 580.725 143.241 566.917 143.241 552.52H143.241Z" fill="#F2F2F2"/>
<path d="M90.6686 673.897C90.2188 673.897 89.7875 673.719 89.4694 673.401C89.1514 673.082 88.9727 672.651 88.9727 672.201V520.985C88.9727 520.536 89.1513 520.104 89.4694 519.786C89.7874 519.468 90.2188 519.289 90.6686 519.289C91.1184 519.289 91.5498 519.468 91.8678 519.786C92.1859 520.104 92.3646 520.536 92.3646 520.985V672.201C92.3646 672.651 92.1859 673.082 91.8678 673.401C91.5498 673.719 91.1184 673.897 90.6686 673.897Z" fill="#CCCCCC"/>
<path d="M90.6683 545.773C90.3329 545.773 90.005 545.674 89.7262 545.487C89.4474 545.301 89.2301 545.036 89.1017 544.726C88.9734 544.416 88.9398 544.075 89.0052 543.746C89.0706 543.417 89.2321 543.115 89.4692 542.878L111.648 520.692C111.966 520.374 112.398 520.195 112.847 520.195C113.297 520.195 113.729 520.374 114.047 520.692C114.365 521.01 114.543 521.442 114.543 521.892C114.543 522.341 114.365 522.773 114.047 523.091L91.8674 545.276C91.7101 545.434 91.5232 545.559 91.3174 545.645C91.1116 545.73 90.891 545.774 90.6683 545.773Z" fill="#CCCCCC"/>
<path d="M714.782 673.897C714.332 673.897 713.901 673.719 713.583 673.401C713.265 673.082 713.086 672.651 713.086 672.201V520.985C713.086 520.536 713.265 520.104 713.583 519.786C713.901 519.468 714.332 519.289 714.782 519.289C715.232 519.289 715.663 519.468 715.981 519.786C716.299 520.104 716.478 520.536 716.478 520.985V672.201C716.478 672.651 716.299 673.082 715.981 673.401C715.663 673.719 715.232 673.897 714.782 673.897Z" fill="#3F3D56"/>
<path d="M896.253 552.52C896.253 522.56 871.955 451.467 841.982 451.467C812.009 451.467 787.711 522.56 787.711 552.52C787.711 566.917 793.429 580.725 803.607 590.905C813.784 601.085 827.588 606.804 841.982 606.804C856.375 606.804 870.179 601.085 880.357 590.905C890.535 580.725 896.253 566.917 896.253 552.52H896.253Z" fill="#E6E6E6"/>
<path d="M882.686 552.52C882.686 522.56 858.388 451.467 828.415 451.467C798.442 451.467 774.145 522.56 774.145 552.52C774.145 566.917 779.862 580.725 790.04 590.905C800.218 601.085 814.022 606.804 828.415 606.804C842.809 606.804 856.613 601.085 866.791 590.905C876.968 580.725 882.686 566.917 882.686 552.52H882.686Z" fill="#F2F2F2"/>
<path d="M830.114 673.897C829.664 673.897 829.233 673.719 828.915 673.401C828.597 673.082 828.418 672.651 828.418 672.201V520.985C828.418 520.536 828.597 520.104 828.915 519.786C829.233 519.468 829.664 519.289 830.114 519.289C830.564 519.289 830.995 519.468 831.313 519.786C831.631 520.104 831.81 520.536 831.81 520.985V672.201C831.81 672.651 831.631 673.082 831.313 673.401C830.995 673.719 830.564 673.897 830.114 673.897Z" fill="#CCCCCC"/>
<path d="M830.114 545.773C829.778 545.773 829.45 545.674 829.172 545.487C828.893 545.301 828.675 545.036 828.547 544.726C828.419 544.416 828.385 544.075 828.451 543.746C828.516 543.417 828.677 543.115 828.914 542.878L851.094 520.692C851.412 520.374 851.843 520.195 852.293 520.195C852.743 520.195 853.174 520.374 853.492 520.692C853.81 521.01 853.989 521.442 853.989 521.892C853.989 522.341 853.81 522.773 853.492 523.091L831.313 545.276C831.156 545.434 830.969 545.559 830.763 545.645C830.557 545.73 830.336 545.774 830.114 545.773Z" fill="#CCCCCC"/>
<path d="M270.439 87.8866H243.304C241.28 87.8844 239.34 87.0794 237.91 85.6483C236.479 84.2172 235.674 82.2768 235.672 80.253V17.4872C235.674 15.4633 236.479 13.523 237.91 12.0919C239.34 10.6608 241.28 9.85576 243.304 9.85352H270.439C272.463 9.85576 274.402 10.6608 275.833 12.0919C277.264 13.523 278.069 15.4633 278.071 17.4872V80.253C278.069 82.2768 277.264 84.2172 275.833 85.6483C274.402 87.0794 272.463 87.8844 270.439 87.8866Z" fill="#E6E6E6"/>
<path d="M377.289 673.134H238.22C234.398 673.13 230.734 671.609 228.032 668.906C225.329 666.203 223.809 662.538 223.805 658.715V97.216C223.809 93.3932 225.329 89.7281 228.032 87.0249C230.734 84.3217 234.398 82.8012 238.22 82.7969H377.289C381.111 82.8011 384.775 84.3217 387.478 87.0249C390.18 89.7281 391.701 93.3931 391.705 97.216V658.715C391.701 662.538 390.18 666.203 387.478 668.906C384.775 671.609 381.111 673.13 377.289 673.134Z" fill="#E6E6E6"/>
<path d="M294.188 673.134H155.119C151.297 673.13 147.633 671.609 144.93 668.906C142.228 666.203 140.707 662.538 140.703 658.715V97.216C140.707 93.3932 142.228 89.7281 144.93 87.0249C147.633 84.3217 151.297 82.8012 155.119 82.7969H294.188C298.01 82.8012 301.674 84.3217 304.376 87.0249C307.079 89.7281 308.599 93.3932 308.603 97.216V658.715C308.599 662.538 307.079 666.203 304.376 668.906C301.674 671.609 298.01 673.13 294.188 673.134Z" fill="#F2F2F2"/>
<path d="M245.006 87.8866H217.87C215.847 87.8844 213.907 87.0794 212.476 85.6483C211.045 84.2172 210.241 82.2768 210.238 80.253V17.4872C210.241 15.4633 211.045 13.523 212.476 12.0919C213.907 10.6608 215.847 9.85576 217.87 9.85352H245.006C247.029 9.85576 248.969 10.6608 250.4 12.0919C251.83 13.523 252.635 15.4633 252.637 17.4872V80.253C252.635 82.2768 251.83 84.2172 250.4 85.6483C248.969 87.0794 247.029 87.8844 245.006 87.8866Z" fill="#F2F2F2"/>
<path d="M209.389 210.026H177.166C176.042 210.025 174.964 209.578 174.169 208.783C173.374 207.988 172.927 206.91 172.926 205.785V156.591C172.927 155.466 173.374 154.388 174.169 153.593C174.964 152.798 176.042 152.351 177.166 152.35H209.389C210.513 152.351 211.591 152.798 212.386 153.593C213.18 154.388 213.628 155.466 213.629 156.591V205.785C213.628 206.91 213.18 207.988 212.386 208.783C211.591 209.578 210.513 210.025 209.389 210.026Z" fill="white"/>
<path d="M272.135 210.026H239.912C238.788 210.025 237.71 209.578 236.915 208.783C236.12 207.988 235.673 206.91 235.672 205.785V156.591C235.673 155.466 236.12 154.388 236.915 153.593C237.71 152.798 238.788 152.351 239.912 152.35H272.135C273.259 152.351 274.337 152.798 275.132 153.593C275.927 154.388 276.374 155.466 276.375 156.591V205.785C276.374 206.91 275.927 207.988 275.132 208.783C274.337 209.578 273.259 210.025 272.135 210.026Z" fill="white"/>
<path d="M209.389 299.932H177.166C176.042 299.931 174.964 299.484 174.169 298.689C173.374 297.894 172.927 296.816 172.926 295.692V246.497C172.927 245.372 173.374 244.294 174.169 243.499C174.964 242.704 176.042 242.257 177.166 242.256H209.389C210.513 242.257 211.591 242.704 212.386 243.499C213.18 244.294 213.628 245.372 213.629 246.497V295.692C213.628 296.816 213.18 297.894 212.386 298.689C211.591 299.484 210.513 299.931 209.389 299.932Z" fill="white"/>
<path d="M272.135 299.932H239.912C238.788 299.931 237.71 299.484 236.915 298.689C236.12 297.894 235.673 296.816 235.672 295.692V246.497C235.673 245.372 236.12 244.294 236.915 243.499C237.71 242.704 238.788 242.257 239.912 242.256H272.135C273.259 242.257 274.337 242.704 275.132 243.499C275.927 244.294 276.374 245.372 276.375 246.497V295.692C276.374 296.816 275.927 297.894 275.132 298.689C274.337 299.484 273.259 299.931 272.135 299.932Z" fill="white"/>
<path d="M209.389 389.843H177.166C176.042 389.841 174.964 389.394 174.169 388.599C173.374 387.804 172.927 386.726 172.926 385.602V336.407C172.927 335.283 173.374 334.205 174.169 333.41C174.964 332.615 176.042 332.167 177.166 332.166H209.389C210.513 332.167 211.591 332.615 212.386 333.41C213.18 334.205 213.628 335.283 213.629 336.407V385.602C213.628 386.726 213.18 387.804 212.386 388.599C211.591 389.394 210.513 389.841 209.389 389.843Z" fill="white"/>
<path d="M272.135 389.843H239.912C238.788 389.841 237.71 389.394 236.915 388.599C236.12 387.804 235.673 386.726 235.672 385.602V336.407C235.673 335.283 236.12 334.205 236.915 333.41C237.71 332.615 238.788 332.167 239.912 332.166H272.135C273.259 332.167 274.337 332.615 275.132 333.41C275.927 334.205 276.374 335.283 276.375 336.407V385.602C276.374 386.726 275.927 387.804 275.132 388.599C274.337 389.394 273.259 389.841 272.135 389.843Z" fill="white"/>
<path d="M209.389 479.751H177.166C176.042 479.75 174.964 479.302 174.169 478.507C173.374 477.712 172.927 476.634 172.926 475.51V426.315C172.927 425.191 173.374 424.113 174.169 423.318C174.964 422.523 176.042 422.076 177.166 422.074H209.389C210.513 422.076 211.591 422.523 212.386 423.318C213.18 424.113 213.628 425.191 213.629 426.315V475.51C213.628 476.634 213.18 477.712 212.386 478.507C211.591 479.302 210.513 479.75 209.389 479.751Z" fill="white"/>
<path d="M272.135 479.751H239.912C238.788 479.75 237.71 479.302 236.915 478.507C236.12 477.712 235.673 476.634 235.672 475.51V426.315C235.673 425.191 236.12 424.113 236.915 423.318C237.71 422.523 238.788 422.076 239.912 422.074H272.135C273.259 422.076 274.337 422.523 275.132 423.318C275.927 424.113 276.374 425.191 276.375 426.315V475.51C276.374 476.634 275.927 477.712 275.132 478.507C274.337 479.302 273.259 479.75 272.135 479.751Z" fill="white"/>
<path d="M209.389 569.657H177.166C176.042 569.656 174.964 569.209 174.169 568.414C173.374 567.618 172.927 566.541 172.926 565.416V516.221C172.927 515.097 173.374 514.019 174.169 513.224C174.964 512.429 176.042 511.982 177.166 511.98H209.389C210.513 511.982 211.591 512.429 212.386 513.224C213.18 514.019 213.628 515.097 213.629 516.221V565.416C213.628 566.541 213.18 567.618 212.386 568.414C211.591 569.209 210.513 569.656 209.389 569.657Z" fill="white"/>
<path d="M272.135 569.657H239.912C238.788 569.656 237.71 569.209 236.915 568.414C236.12 567.618 235.673 566.541 235.672 565.416V516.221C235.673 515.097 236.12 514.019 236.915 513.224C237.71 512.429 238.788 511.982 239.912 511.98H272.135C273.259 511.982 274.337 512.429 275.132 513.224C275.927 514.019 276.374 515.097 276.375 516.221V565.416C276.374 566.541 275.927 567.618 275.132 568.414C274.337 569.209 273.259 569.656 272.135 569.657Z" fill="white"/>
<path d="M970.877 384.752H943.741C941.718 384.75 939.778 383.945 938.347 382.514C936.916 381.083 936.112 379.143 936.109 377.119V341.495C936.112 339.471 936.916 337.531 938.347 336.1C939.778 334.669 941.718 333.864 943.741 333.861H970.877C972.9 333.864 974.84 334.669 976.271 336.1C977.701 337.531 978.506 339.471 978.508 341.495V377.119C978.506 379.143 977.701 381.083 976.271 382.514C974.84 383.945 972.9 384.75 970.877 384.752Z" fill="#E6E6E6"/>
<path d="M1199.83 674.831H1060.76C1056.94 674.827 1053.28 673.306 1050.57 670.603C1047.87 667.9 1046.35 664.235 1046.35 660.412V390.689C1046.35 386.866 1047.87 383.201 1050.57 380.498C1053.28 377.794 1056.94 376.274 1060.76 376.27H1199.83C1203.65 376.274 1207.32 377.794 1210.02 380.498C1212.72 383.201 1214.24 386.866 1214.25 390.689V660.412C1214.24 664.235 1212.72 667.9 1210.02 670.603C1207.32 673.306 1203.65 674.827 1199.83 674.831Z" fill="#E6E6E6"/>
<path d="M1116.73 674.831H875.9C872.078 674.827 868.414 673.306 865.711 670.603C863.009 667.9 861.489 664.235 861.484 660.412V390.689C861.489 386.866 863.009 383.201 865.711 380.498C868.414 377.794 872.078 376.274 875.9 376.27H1116.73C1120.55 376.274 1124.21 377.794 1126.92 380.498C1129.62 383.201 1131.14 386.866 1131.14 390.689V660.412C1131.14 664.235 1129.62 667.9 1126.92 670.603C1124.21 673.306 1120.55 674.827 1116.73 674.831Z" fill="#F2F2F2"/>
<path d="M945.431 384.752H918.296C916.273 384.75 914.333 383.945 912.902 382.514C911.471 381.083 910.666 379.143 910.664 377.119V341.495C910.666 339.471 911.471 337.531 912.902 336.1C914.333 334.669 916.273 333.864 918.296 333.861H945.431C947.455 333.864 949.395 334.669 950.825 336.1C952.256 337.531 953.061 339.471 953.063 341.495V377.119C953.061 379.143 952.256 381.083 950.825 382.514C949.395 383.945 947.455 384.75 945.431 384.752Z" fill="#F2F2F2"/>
<path d="M981.049 509.436H948.826C947.702 509.435 946.624 508.988 945.829 508.193C945.034 507.398 944.587 506.32 944.586 505.195V456.001C944.587 454.876 945.034 453.798 945.829 453.003C946.624 452.208 947.702 451.761 948.826 451.76H981.049C982.173 451.761 983.251 452.208 984.046 453.003C984.841 453.798 985.288 454.876 985.289 456.001V505.195C985.288 506.32 984.841 507.398 984.046 508.193C983.251 508.988 982.173 509.435 981.049 509.436Z" fill="white"/>
<path d="M1043.8 509.436H1011.58C1010.46 509.435 1009.38 508.988 1008.58 508.193C1007.79 507.398 1007.34 506.32 1007.34 505.195V456.001C1007.34 454.876 1007.79 453.798 1008.58 453.003C1009.38 452.208 1010.46 451.761 1011.58 451.76H1043.8C1044.93 451.761 1046 452.208 1046.8 453.003C1047.59 453.798 1048.04 454.876 1048.04 456.001V505.195C1048.04 506.32 1047.59 507.398 1046.8 508.193C1046 508.988 1044.93 509.435 1043.8 509.436Z" fill="white"/>
<path d="M981.049 599.345H948.826C947.702 599.343 946.624 598.896 945.829 598.101C945.034 597.306 944.587 596.228 944.586 595.104V545.909C944.587 544.785 945.034 543.707 945.829 542.912C946.624 542.117 947.702 541.669 948.826 541.668H981.049C982.173 541.669 983.251 542.117 984.046 542.912C984.841 543.707 985.288 544.785 985.289 545.909V595.104C985.288 596.228 984.841 597.306 984.046 598.101C983.251 598.896 982.173 599.343 981.049 599.345Z" fill="white"/>
<path d="M1043.8 599.345H1011.58C1010.46 599.343 1009.38 598.896 1008.58 598.101C1007.79 597.306 1007.34 596.228 1007.34 595.104V545.909C1007.34 544.785 1007.79 543.707 1008.58 542.912C1009.38 542.117 1010.46 541.669 1011.58 541.668H1043.8C1044.93 541.669 1046 542.117 1046.8 542.912C1047.59 543.707 1048.04 544.785 1048.04 545.909V595.104C1048.04 596.228 1047.59 597.306 1046.8 598.101C1046 598.896 1044.93 599.343 1043.8 599.345Z" fill="white"/>
<path d="M494.307 552.52C494.307 522.56 470.009 451.467 440.036 451.467C410.064 451.467 385.766 522.56 385.766 552.52C385.766 566.917 391.483 580.725 401.661 590.905C411.839 601.085 425.643 606.804 440.036 606.804C454.43 606.804 468.234 601.085 478.412 590.905C488.59 580.725 494.307 566.917 494.307 552.52H494.307Z" fill="#E6E6E6"/>
<path d="M480.741 552.52C480.741 522.56 456.443 451.467 426.47 451.467C396.497 451.467 372.199 522.56 372.199 552.52C372.199 566.917 377.917 580.725 388.095 590.905C398.273 601.085 412.077 606.804 426.47 606.804C440.864 606.804 454.668 601.085 464.845 590.905C475.023 580.725 480.741 566.917 480.741 552.52H480.741Z" fill="#F2F2F2"/>
<path d="M428.169 673.897C427.719 673.897 427.287 673.719 426.969 673.401C426.651 673.082 426.473 672.651 426.473 672.201V520.985C426.473 520.536 426.651 520.104 426.969 519.786C427.287 519.468 427.719 519.289 428.169 519.289C428.618 519.289 429.05 519.468 429.368 519.786C429.686 520.104 429.865 520.536 429.865 520.985V672.201C429.865 672.651 429.686 673.082 429.368 673.401C429.05 673.719 428.618 673.897 428.169 673.897Z" fill="#CCCCCC"/>
<path d="M428.168 545.773C427.833 545.773 427.505 545.674 427.226 545.487C426.947 545.301 426.73 545.036 426.602 544.726C426.473 544.416 426.44 544.075 426.505 543.746C426.571 543.417 426.732 543.115 426.969 542.878L449.148 520.692C449.466 520.374 449.898 520.195 450.347 520.195C450.797 520.195 451.229 520.374 451.547 520.692C451.865 521.01 452.043 521.442 452.043 521.892C452.043 522.341 451.865 522.773 451.547 523.091L429.367 545.276C429.21 545.434 429.023 545.559 428.817 545.645C428.612 545.73 428.391 545.774 428.168 545.773Z" fill="#CCCCCC"/>
<path d="M1360.94 552.52C1360.94 522.56 1336.65 451.467 1306.67 451.467C1276.7 451.467 1252.4 522.56 1252.4 552.52C1252.4 566.917 1258.12 580.725 1268.3 590.905C1278.48 601.085 1292.28 606.804 1306.67 606.804C1321.07 606.804 1334.87 601.085 1345.05 590.905C1355.23 580.725 1360.94 566.917 1360.94 552.52H1360.94Z" fill="#E6E6E6"/>
<path d="M1347.38 552.52C1347.38 522.56 1323.08 451.467 1293.11 451.467C1263.13 451.467 1238.84 522.56 1238.84 552.52C1238.84 566.917 1244.55 580.725 1254.73 590.905C1264.91 601.085 1278.71 606.804 1293.11 606.804C1307.5 606.804 1321.3 601.085 1331.48 590.905C1341.66 580.725 1347.38 566.917 1347.38 552.52H1347.38Z" fill="#F2F2F2"/>
<path d="M1294.81 673.897C1294.36 673.897 1293.92 673.719 1293.61 673.401C1293.29 673.082 1293.11 672.651 1293.11 672.201V520.985C1293.11 520.536 1293.29 520.104 1293.61 519.786C1293.92 519.468 1294.36 519.289 1294.81 519.289C1295.26 519.289 1295.69 519.468 1296 519.786C1296.32 520.104 1296.5 520.536 1296.5 520.985V672.201C1296.5 672.651 1296.32 673.082 1296 673.401C1295.69 673.719 1295.26 673.897 1294.81 673.897Z" fill="#CCCCCC"/>
<path d="M1294.8 545.773C1294.47 545.773 1294.14 545.674 1293.86 545.487C1293.58 545.301 1293.37 545.036 1293.24 544.726C1293.11 544.416 1293.08 544.075 1293.14 543.746C1293.21 543.417 1293.37 543.115 1293.61 542.878L1315.79 520.692C1316.1 520.374 1316.53 520.195 1316.98 520.195C1317.43 520.195 1317.87 520.374 1318.18 520.692C1318.5 521.01 1318.68 521.442 1318.68 521.892C1318.68 522.341 1318.5 522.773 1318.18 523.091L1296 545.276C1295.85 545.434 1295.66 545.559 1295.45 545.645C1295.25 545.73 1295.03 545.774 1294.8 545.773Z" fill="#CCCCCC"/>
<path d="M733.442 571.353H696.131C695.006 571.352 693.929 570.905 693.134 570.11C692.339 569.314 691.892 568.236 691.891 567.112V529.792C691.892 528.667 692.339 527.589 693.134 526.794C693.929 525.999 695.006 525.552 696.131 525.551H733.442C734.566 525.552 735.644 525.999 736.439 526.794C737.234 527.589 737.681 528.667 737.682 529.792V567.112C737.681 568.236 737.234 569.314 736.439 570.11C735.644 570.905 734.566 571.352 733.442 571.353Z" fill="#3F3D56"/>
<path d="M1095.64 589.53C1096.05 589.637 1096.43 589.832 1096.75 590.101C1097.08 590.371 1097.34 590.708 1097.52 591.089C1097.7 591.471 1097.79 591.887 1097.79 592.308C1097.79 592.73 1097.7 593.147 1097.53 593.529L1104.9 600.642L1099.7 601.807L1093.5 594.874C1092.88 594.534 1092.4 593.977 1092.16 593.309C1091.92 592.641 1091.93 591.909 1092.2 591.25C1092.46 590.591 1092.96 590.052 1093.59 589.735C1094.23 589.418 1094.96 589.345 1095.64 589.53H1095.64Z" fill="#FFB8B8"/>
<path d="M1106 608.239L1096.91 599.702C1096.78 599.584 1096.68 599.443 1096.61 599.285C1096.54 599.128 1096.5 598.958 1096.5 598.786C1096.5 598.614 1096.53 598.442 1096.59 598.282C1096.66 598.123 1096.75 597.977 1096.87 597.854L1098.73 595.973C1098.95 595.75 1099.24 595.615 1099.56 595.593C1099.87 595.571 1100.18 595.664 1100.43 595.854L1108.05 601.682L1112.81 590.144C1113 589.689 1113.28 589.277 1113.63 588.934C1113.98 588.591 1114.4 588.324 1114.86 588.149C1115.32 587.975 1115.82 587.897 1116.31 587.92C1116.8 587.943 1117.28 588.067 1117.72 588.283C1118.42 588.621 1118.99 589.175 1119.34 589.863C1119.7 590.551 1119.82 591.336 1119.69 592.099C1118.83 597.347 1113.6 604.285 1110.56 607.954C1110.15 608.453 1109.59 608.812 1108.96 608.981C1108.33 609.149 1107.67 609.119 1107.06 608.894C1106.67 608.748 1106.31 608.525 1106 608.239Z" fill="#6C63FF"/>
<path d="M1100.91 599.959L1094.21 590.243C1094.12 590.117 1094.09 589.963 1094.12 589.814C1094.15 589.664 1094.23 589.531 1094.36 589.445L1094.63 589.26C1094.69 589.217 1094.76 589.187 1094.83 589.171C1094.91 589.155 1094.98 589.154 1095.06 589.168C1095.13 589.181 1095.2 589.209 1095.26 589.25C1095.33 589.291 1095.38 589.344 1095.42 589.406L1102.12 599.123C1102.16 599.185 1102.19 599.255 1102.21 599.328C1102.23 599.402 1102.23 599.478 1102.21 599.552C1102.2 599.626 1102.17 599.697 1102.13 599.76C1102.09 599.823 1102.04 599.878 1101.97 599.921L1101.71 600.106C1101.58 600.192 1101.43 600.225 1101.28 600.198C1101.13 600.17 1100.99 600.084 1100.91 599.959Z" fill="white"/>
<path d="M1099.03 600.031L1093.47 591.967C1093.23 591.623 1093.14 591.198 1093.22 590.787C1093.29 590.376 1093.53 590.011 1093.87 589.773L1094.44 589.383L1101.79 600.044L1101.22 600.434C1100.88 600.671 1100.45 600.762 1100.04 600.687C1099.63 600.611 1099.27 600.375 1099.03 600.031Z" fill="#3F3D56"/>
<path d="M1099.71 669.633L1096.21 669.231L1096.68 655.635L1101.26 656.164L1099.71 669.633Z" fill="#FFB8B8"/>
<path d="M1140.31 667.049L1136.95 668.087L1131.35 655.626L1136.31 654.094L1140.31 667.049Z" fill="#FFB8B8"/>
<path d="M1095.8 666.5C1095.45 666.391 1095.15 666.147 1094.97 665.822C1094.79 665.496 1094.75 665.114 1094.85 664.756L1096.95 640.523C1097.05 639.418 1097.4 638.349 1097.97 637.398L1110.71 616.25L1122.11 618.299L1122.18 618.329C1127.72 621.724 1132.64 638.182 1137.4 654.099C1138.14 656.574 1138.9 659.133 1139.65 661.579C1139.79 661.929 1139.79 662.318 1139.64 662.665C1139.5 663.012 1139.22 663.289 1138.88 663.436L1135.43 664.89C1135.1 665.029 1134.73 665.041 1134.4 664.923C1134.06 664.806 1133.78 664.568 1133.61 664.256L1115.87 631.759C1115.84 631.719 1115.81 631.684 1115.77 631.658C1115.74 631.632 1115.69 631.616 1115.65 631.612C1115.6 631.606 1115.55 631.611 1115.51 631.628C1115.47 631.645 1115.43 631.672 1115.4 631.707L1105.1 643.364L1101.32 665.578L1101.3 665.626C1101.16 665.944 1100.92 666.201 1100.61 666.351C1100.29 666.502 1099.94 666.534 1099.61 666.443L1095.89 666.513L1095.87 666.514L1095.8 666.5Z" fill="#2F2E41"/>
<path d="M1110.09 618.567L1110.02 618.544L1110 618.471C1109.94 618.295 1104.73 600.657 1109.43 589.413L1109.43 589.403C1109.57 589.135 1112.85 582.84 1116.65 582.21L1116.75 582.193L1117.99 584.507C1118.38 584.897 1125.08 591.851 1122.04 603.804C1122.31 604.784 1126.01 618.241 1124 620.252C1123.26 620.758 1122.37 620.982 1121.49 620.882C1117.61 620.55 1113.79 619.773 1110.09 618.567Z" fill="#6C63FF"/>
<path d="M1115.87 580.003C1120.78 580.003 1124.76 576.023 1124.76 571.114C1124.76 566.204 1120.78 562.225 1115.87 562.225C1110.96 562.225 1106.98 566.204 1106.98 571.114C1106.98 576.023 1110.96 580.003 1115.87 580.003Z" fill="#2F2E41"/>
<path d="M1112.34 579.963C1116.23 579.963 1119.38 576.81 1119.38 572.92C1119.38 569.03 1116.23 565.877 1112.34 565.877C1108.45 565.877 1105.3 569.03 1105.3 572.92C1105.3 576.81 1108.45 579.963 1112.34 579.963Z" fill="#FFB8B8"/>
<path d="M1116.87 579.762C1116.23 579.99 1115.44 580.191 1114.93 579.718C1114.72 579.446 1114.6 579.116 1114.58 578.772C1114.56 578.429 1114.65 578.087 1114.82 577.792C1115.19 577.211 1115.48 576.59 1115.7 575.941C1115.77 575.452 1115.71 574.955 1115.52 574.498C1115.34 574.041 1115.04 573.639 1114.66 573.332C1113.89 572.749 1113.03 572.314 1112.11 572.048L1107.18 570.295C1105.9 569.993 1104.76 569.256 1103.96 568.21C1103.55 567.339 1103.48 566.345 1103.76 565.424C1104.05 564.503 1104.66 563.721 1105.5 563.233C1106.33 562.811 1107.25 562.582 1108.19 562.564C1109.13 562.545 1110.06 562.738 1110.91 563.127C1111.85 563.565 1112.81 563.951 1113.8 564.282C1115.77 564.803 1118.02 564.336 1119.75 565.449C1120.48 566.004 1121.06 566.734 1121.44 567.572C1121.82 568.409 1121.98 569.328 1121.91 570.244C1121.76 572.087 1121.27 573.886 1120.46 575.548C1120.08 576.572 1119.54 577.526 1118.85 578.373C1118.51 578.786 1118.08 579.112 1117.59 579.323C1117.1 579.534 1116.57 579.624 1116.04 579.586L1116.87 579.762Z" fill="#2F2E41"/>
<path d="M1123.33 572.548C1126.49 572.548 1129.06 569.98 1129.06 566.813C1129.06 563.646 1126.49 561.078 1123.33 561.078C1120.16 561.078 1117.59 563.646 1117.59 566.813C1117.59 569.98 1120.16 572.548 1123.33 572.548Z" fill="#2F2E41"/>
<path d="M1113.86 575.129C1113.86 575.025 1113.89 574.923 1113.94 574.833C1114 574.744 1114.08 574.671 1114.17 574.622C1114.26 574.573 1114.36 574.55 1114.47 574.555C1114.57 574.561 1114.67 574.594 1114.76 574.652C1114.84 574.711 1114.91 574.791 1114.96 574.885C1115 574.98 1115.02 575.084 1115.01 575.188C1115 575.291 1114.96 575.39 1114.89 575.473C1114.83 575.556 1114.75 575.621 1114.65 575.66V576.921C1114.65 576.949 1114.65 576.978 1114.64 577.004C1114.62 577.03 1114.61 577.054 1114.59 577.074C1114.57 577.095 1114.55 577.111 1114.52 577.122C1114.49 577.132 1114.46 577.138 1114.44 577.138C1114.41 577.138 1114.38 577.132 1114.35 577.122C1114.33 577.111 1114.3 577.095 1114.28 577.074C1114.26 577.054 1114.25 577.03 1114.24 577.004C1114.23 576.978 1114.22 576.949 1114.22 576.921V575.66C1114.12 575.617 1114.03 575.544 1113.96 575.449C1113.9 575.355 1113.86 575.243 1113.86 575.129Z" fill="white"/>
<path d="M1095.99 595.547C1096.41 595.506 1096.84 595.556 1097.23 595.696C1097.63 595.835 1097.99 596.061 1098.29 596.355C1098.6 596.65 1098.83 597.007 1098.98 597.402C1099.13 597.797 1099.19 598.219 1099.15 598.639L1108.54 602.736L1104.08 605.638L1095.85 601.303C1095.15 601.202 1094.5 600.846 1094.05 600.304C1093.59 599.762 1093.35 599.07 1093.36 598.361C1093.38 597.651 1093.66 596.973 1094.14 596.454C1094.63 595.936 1095.29 595.613 1095.99 595.547Z" fill="#FFB8B8"/>
<path d="M1112.23 609.469L1100.73 604.64C1100.57 604.573 1100.43 604.475 1100.31 604.352C1100.18 604.229 1100.09 604.083 1100.03 603.923C1099.96 603.762 1099.93 603.591 1099.94 603.419C1099.94 603.247 1099.98 603.077 1100.05 602.92L1101.14 600.509C1101.27 600.223 1101.49 599.993 1101.78 599.864C1102.07 599.734 1102.39 599.713 1102.69 599.804L1111.87 602.609L1112.3 590.137C1112.32 589.644 1112.44 589.161 1112.65 588.716C1112.86 588.272 1113.16 587.875 1113.53 587.551C1113.9 587.227 1114.34 586.983 1114.81 586.833C1115.27 586.683 1115.77 586.631 1116.26 586.68C1117.03 586.753 1117.76 587.074 1118.33 587.595C1118.9 588.117 1119.29 588.809 1119.44 589.57C1120.45 594.79 1117.97 603.115 1116.4 607.614C1116.19 608.227 1115.79 608.758 1115.26 609.135C1114.73 609.511 1114.09 609.715 1113.44 609.717C1113.03 609.716 1112.61 609.632 1112.23 609.469Z" fill="#6C63FF"/>
<path d="M14.0895 632.335H8.74764C8.57623 632.336 8.41079 632.272 8.28383 632.157C8.15687 632.042 8.07756 631.883 8.06145 631.712L6.99219 620.75H15.8449L14.7757 631.712C14.7596 631.883 14.6803 632.041 14.5533 632.157C14.4264 632.272 14.2609 632.336 14.0895 632.335Z" fill="#E6E6E6"/>
<path d="M489.533 617.571C489.795 617.312 489.997 616.999 490.124 616.653C490.252 616.308 490.303 615.939 490.272 615.571C490.242 615.204 490.131 614.848 489.948 614.528C489.765 614.209 489.515 613.933 489.214 613.72L487.941 605.33L482.715 606.975L485.578 614.461C485.255 614.99 485.137 615.62 485.247 616.23C485.357 616.841 485.687 617.39 486.174 617.773C486.662 618.157 487.273 618.348 487.892 618.311C488.511 618.273 489.095 618.01 489.533 617.571Z" fill="#FFB8B8"/>
<path d="M484.152 613.625L480.928 598.565C480.614 597.122 480.675 595.623 481.106 594.211C481.538 592.799 482.324 591.521 483.39 590.5C487.517 586.522 492.821 581.508 494.653 580.211C496.373 578.985 498.453 578.371 500.563 578.467L500.607 578.472L503.38 581.093L497.339 591.041L488.167 596.789L489.188 611.55L484.152 613.625Z" fill="#6C63FF"/>
<path d="M495.439 593.158H481.909C481.323 593.158 480.848 593.633 480.848 594.22C480.848 594.806 481.323 595.281 481.909 595.281H495.439C496.025 595.281 496.5 594.806 496.5 594.22C496.5 593.633 496.025 593.158 495.439 593.158Z" fill="#CCCCCC"/>
<path d="M495.439 616.246H481.909C481.323 616.246 480.848 616.721 480.848 617.308C480.848 617.894 481.323 618.369 481.909 618.369H495.439C496.025 618.369 496.5 617.894 496.5 617.308C496.5 616.721 496.025 616.246 495.439 616.246Z" fill="#CCCCCC"/>
<path d="M488.814 674.09C488.681 674.09 488.554 674.04 488.456 673.95C488.358 673.861 488.297 673.738 488.286 673.606L481.522 594.265C481.515 594.196 481.523 594.126 481.544 594.059C481.564 593.992 481.598 593.93 481.643 593.877C481.687 593.823 481.742 593.779 481.804 593.747C481.866 593.714 481.934 593.695 482.003 593.688C482.073 593.682 482.143 593.69 482.209 593.711C482.276 593.732 482.338 593.766 482.391 593.811C482.445 593.855 482.489 593.91 482.521 593.972C482.553 594.034 482.573 594.102 482.579 594.172L488.806 667.476L494.857 594.173C494.863 594.103 494.882 594.035 494.914 593.973C494.946 593.911 494.99 593.856 495.043 593.811C495.097 593.766 495.159 593.732 495.225 593.71C495.292 593.689 495.362 593.682 495.431 593.688C495.501 593.694 495.569 593.713 495.631 593.745C495.693 593.778 495.748 593.822 495.793 593.875C495.838 593.929 495.871 593.991 495.892 594.058C495.913 594.124 495.921 594.194 495.914 594.264L489.343 673.604C489.331 673.737 489.271 673.86 489.173 673.95C489.075 674.04 488.947 674.089 488.815 674.09L488.814 674.09Z" fill="#CCCCCC"/>
<path d="M503.996 575.292C507.84 575.292 510.957 572.175 510.957 568.33C510.957 564.484 507.84 561.367 503.996 561.367C500.152 561.367 497.035 564.484 497.035 568.33C497.035 572.175 500.152 575.292 503.996 575.292Z" fill="#FFB8B8"/>
<path d="M483.244 670.911L479.934 669.856L482.428 656.582L487.314 658.139L483.244 670.911Z" fill="#FFB8B8"/>
<path d="M507.332 670.842H503.857L502.203 657.438H507.332V670.842Z" fill="#FFB8B8"/>
<path d="M507.23 666.489L506.057 666.314C504.584 666.225 503.128 665.953 501.723 665.504C501.435 665.377 501.414 663.463 501.587 652.699C501.714 644.799 501.873 634.966 501.566 629.687C501.553 629.479 501.47 629.281 501.332 629.125C501.193 628.97 501.005 628.865 500.8 628.829C500.594 628.793 500.383 628.827 500.199 628.926C500.015 629.025 499.87 629.182 499.787 629.374C497.141 635.487 492.701 649.167 489.763 658.219C488.741 661.368 487.934 663.855 487.423 665.345C487.324 665.627 487.124 665.862 486.861 666.005C486.599 666.147 486.293 666.186 486.003 666.114C483.585 665.51 483.747 665.253 480.303 664.362C480.005 664.286 479.748 664.098 479.586 663.836C479.423 663.575 479.368 663.261 479.432 662.96C480.055 660.022 491.454 612.384 492.326 607.856C492.356 607.701 492.416 607.553 492.502 607.421C492.589 607.29 492.701 607.177 492.832 607.088C492.963 607 493.11 606.939 493.265 606.908C493.42 606.877 493.579 606.877 493.734 606.908C496.3 607.425 497.861 607.974 500.397 608.505C503.134 609.077 505.964 609.669 508.724 610.222C508.998 610.277 509.245 610.428 509.419 610.648C510.188 611.471 511.134 612.107 512.186 612.508C512.909 612.853 511.271 612.822 511.901 613.321C514.45 615.339 510.784 656.331 508.569 665.589C508.498 665.879 508.321 666.132 508.074 666.298C507.826 666.465 507.525 666.533 507.23 666.489V666.489Z" fill="#2F2E41"/>
<path d="M506.964 574.421C506.557 572.696 508.612 568.985 508.205 567.26C507.93 566.092 505.184 566.886 504.543 565.872C504.246 565.349 503.824 564.907 503.316 564.584C502.808 564.262 502.229 564.069 501.629 564.022C500.25 564.006 498.893 565.029 497.587 564.587C497.278 564.434 497.003 564.221 496.777 563.96C496.551 563.699 496.379 563.396 496.271 563.068C496.163 562.74 496.122 562.395 496.149 562.051C496.176 561.707 496.271 561.371 496.428 561.064C497.127 559.845 498.213 558.893 499.513 558.358C501.561 557.107 504.014 556.694 506.358 557.208C507.7 557.728 508.93 558.501 509.981 559.484C511.034 560.265 511.959 561.204 512.723 562.269C513.372 563.38 513.724 564.639 513.745 565.925C513.765 567.211 513.454 568.48 512.841 569.611C511.573 571.868 509.553 573.607 507.132 574.525" fill="#2F2E41"/>
<path d="M489.867 614.559C490.619 613.304 491.759 607.422 493.166 597.549C494.124 590.809 494.958 583.961 495.372 580.463C495.404 580.18 495.508 579.91 495.673 579.678C495.838 579.446 496.059 579.259 496.316 579.136C496.585 579.006 496.852 578.884 497.117 578.768C500.305 577.309 503.843 576.792 507.315 577.28C510.786 577.768 514.045 579.24 516.707 581.521L516.738 581.55L516.746 581.592C516.761 581.67 518.199 589.42 515.254 594.655C512.35 599.821 512.316 613.502 512.316 613.64V613.816L512.147 613.768C507.628 612.476 490.174 614.736 489.998 614.759L489.727 614.794L489.867 614.559Z" fill="#6C63FF"/>
<path d="M516.13 596.607H502.6C502.014 596.607 501.539 597.083 501.539 597.669C501.539 598.255 502.014 598.73 502.6 598.73H516.13C516.716 598.73 517.191 598.255 517.191 597.669C517.191 597.083 516.716 596.607 516.13 596.607Z" fill="#CCCCCC"/>
<path d="M516.13 619.693H502.6C502.014 619.693 501.539 620.169 501.539 620.755C501.539 621.341 502.014 621.816 502.6 621.816H516.13C516.716 621.816 517.191 621.341 517.191 620.755C517.191 620.169 516.716 619.693 516.13 619.693Z" fill="#CCCCCC"/>
<path d="M509.505 674.358C509.373 674.358 509.245 674.309 509.147 674.219C509.049 674.13 508.989 674.007 508.977 673.875L502.213 597.718C502.201 597.578 502.244 597.439 502.335 597.331C502.425 597.223 502.554 597.155 502.695 597.143C502.835 597.13 502.974 597.174 503.082 597.265C503.19 597.355 503.258 597.484 503.27 597.625L509.498 667.744L515.548 597.626C515.554 597.556 515.574 597.488 515.606 597.426C515.638 597.364 515.681 597.309 515.735 597.264C515.788 597.219 515.85 597.185 515.917 597.164C515.983 597.142 516.053 597.135 516.123 597.141C516.192 597.147 516.26 597.166 516.322 597.199C516.384 597.231 516.439 597.275 516.484 597.329C516.529 597.382 516.563 597.444 516.584 597.511C516.604 597.577 516.612 597.648 516.606 597.717L510.034 673.873C510.023 674.006 509.962 674.129 509.864 674.219C509.767 674.309 509.639 674.358 509.506 674.359L509.505 674.358Z" fill="#CCCCCC"/>
<path d="M505.133 620.031C505.054 619.671 505.055 619.298 505.135 618.939C505.216 618.579 505.374 618.241 505.599 617.95C505.824 617.658 506.11 617.419 506.437 617.25C506.765 617.081 507.125 616.986 507.493 616.971L513.119 610.619L516.613 614.841L510.143 619.569C510.127 620.189 509.884 620.782 509.46 621.234C509.036 621.687 508.46 621.969 507.843 622.026C507.225 622.083 506.608 621.911 506.109 621.543C505.61 621.175 505.262 620.637 505.133 620.031H505.133Z" fill="#FFB8B8"/>
<path d="M508.41 615.61L517.286 603.773L512.709 593.963L513.041 582.328L516.794 581.635L516.834 581.655C518.656 582.721 520.069 584.368 520.847 586.331C521.68 588.416 523.409 595.508 524.713 601.09C525.053 602.527 525.019 604.027 524.614 605.446C524.209 606.866 523.446 608.158 522.399 609.198L511.511 620.089L508.41 615.61Z" fill="#6C63FF"/>
<path d="M471.198 671.066L483.341 673.99C483.577 674.052 483.827 674.03 484.048 673.927C484.268 673.824 484.446 673.647 484.549 673.426L494.981 645.686C495.027 645.579 495.05 645.464 495.051 645.348C495.051 645.232 495.027 645.117 494.981 645.01C494.929 644.89 494.852 644.782 494.757 644.693C494.661 644.603 494.549 644.534 494.426 644.49L485.296 641.002C485.152 640.947 484.997 640.923 484.843 640.931C484.689 640.94 484.538 640.981 484.401 641.052C484.281 641.111 484.176 641.194 484.092 641.298C484.008 641.401 483.947 641.521 483.913 641.649L483.912 641.651L477.468 666.1L477.373 666.106C475.373 666.223 473.472 667.016 471.98 668.354C471.67 668.728 471.441 669.162 471.306 669.628C471.172 670.095 471.135 670.584 471.198 671.066Z" fill="#CCCCCC"/>
<path d="M479.997 655.515L479.941 656.043L491.012 657.216L491.068 656.688L479.997 655.515Z" fill="#B3B3B3"/>
<path d="M479.034 659.887L478.816 660.371L487.725 664.381L487.943 663.896L479.034 659.887Z" fill="#B3B3B3"/>
<path d="M492.232 652.972L481.73 649.493L481.949 649.01L492.449 652.487L492.232 652.972Z" fill="#B3B3B3"/>
<path d="M493.294 650.581L482.793 645.511L483.01 645.025L493.511 650.096L493.294 650.581Z" fill="#B3B3B3"/>
<path d="M771.896 619.793C771.447 619.689 771.025 619.487 770.661 619.202C770.298 618.916 770.001 618.555 769.793 618.143C769.584 617.731 769.468 617.278 769.453 616.816C769.438 616.354 769.525 615.895 769.707 615.47L758.059 589.148L764.722 587.469L774.077 613.871C774.77 614.224 775.309 614.819 775.593 615.543C775.877 616.267 775.885 617.071 775.616 617.801C775.348 618.531 774.821 619.137 774.135 619.504C773.449 619.871 772.653 619.974 771.896 619.793Z" fill="#A0616A"/>
<path d="M760.222 597.396C760.036 597.313 759.87 597.191 759.736 597.038C759.602 596.885 759.502 596.704 759.444 596.509L757.407 589.695C756.962 588.751 756.91 587.668 757.263 586.686C757.615 585.704 758.344 584.901 759.287 584.456C760.231 584.011 761.313 583.959 762.295 584.312C763.278 584.664 764.079 585.393 764.525 586.337L768.463 592.286C768.575 592.456 768.65 592.648 768.682 592.849C768.713 593.051 768.701 593.256 768.646 593.452C768.591 593.648 768.494 593.83 768.362 593.985C768.23 594.141 768.067 594.266 767.882 594.352L761.402 597.386C761.217 597.473 761.017 597.518 760.813 597.52C760.609 597.522 760.408 597.479 760.222 597.396Z" fill="#6C63FF"/>
<path d="M783.934 594L776.789 599.06C776.697 599.126 776.587 599.162 776.474 599.162C776.361 599.162 776.251 599.126 776.159 599.06L774.229 597.609C774.164 597.562 774.112 597.502 774.074 597.431C774.037 597.361 774.016 597.284 774.012 597.204C774.009 597.125 774.023 597.046 774.055 596.972C774.086 596.899 774.134 596.834 774.194 596.782L779.692 591.878C779.764 591.815 779.852 591.772 779.946 591.754C780.04 591.736 780.138 591.743 780.228 591.774L783.806 593.055C783.898 593.089 783.979 593.147 784.04 593.224C784.101 593.3 784.141 593.392 784.154 593.489C784.167 593.586 784.153 593.685 784.115 593.775C784.076 593.865 784.013 593.943 783.934 594Z" fill="#3F3D56"/>
<path d="M783.354 593.52C783.371 593.473 783.37 593.42 783.349 593.374C783.328 593.328 783.29 593.292 783.243 593.274L780.02 592.121C779.988 592.109 779.954 592.106 779.92 592.113C779.887 592.119 779.856 592.134 779.83 592.156L774.871 596.579L774.844 596.609C774.829 596.628 774.819 596.651 774.814 596.674C774.808 596.698 774.807 596.723 774.811 596.747C774.815 596.771 774.824 596.794 774.837 596.814C774.849 596.835 774.866 596.853 774.886 596.867L776.623 598.171C776.655 598.195 776.695 598.207 776.735 598.207C776.776 598.207 776.815 598.193 776.847 598.169L783.286 593.609C783.317 593.587 783.341 593.556 783.354 593.52Z" fill="white"/>
<path d="M757.898 669.435H761.504L763.22 655.523H757.898V669.435Z" fill="#A0616A"/>
<path d="M745.836 669.435H749.443L751.158 655.523H745.836V669.435Z" fill="#A0616A"/>
<path d="M745.072 665.186C744.825 664.903 744.687 664.541 744.681 664.166C743.822 655.32 746.161 608.821 751.565 604.85L751.599 604.818L767.416 602.086L767.711 602.38C767.733 602.79 770.609 643.549 762.668 664.35C762.571 664.599 762.401 664.812 762.181 664.962C761.961 665.112 761.701 665.192 761.435 665.192H758.277C758.094 665.192 757.914 665.154 757.746 665.081C757.579 665.008 757.429 664.901 757.305 664.767C757.181 664.633 757.086 664.474 757.026 664.302C756.967 664.129 756.943 663.946 756.957 663.764L759.514 624.814C759.523 624.703 759.489 624.592 759.419 624.505C759.35 624.417 759.249 624.359 759.139 624.343C759.028 624.327 758.915 624.353 758.823 624.417C758.731 624.48 758.667 624.576 758.643 624.686L751.443 664.218C751.381 664.496 751.231 664.747 751.016 664.934C750.801 665.121 750.532 665.234 750.247 665.257L746.1 665.564C746.068 665.566 746.035 665.567 746.002 665.567C745.654 665.567 745.32 665.43 745.072 665.186Z" fill="#2F2E41"/>
<path d="M765.88 578.243C769.87 578.243 773.104 575.008 773.104 571.017C773.104 567.026 769.87 563.791 765.88 563.791C761.891 563.791 758.656 567.026 758.656 571.017C758.656 575.008 761.891 578.243 765.88 578.243Z" fill="#A0616A"/>
<path d="M748.483 611.176C748.177 610.865 748.002 610.45 747.992 610.014L750.942 596.2C748.589 586.197 751.722 584.322 755.257 582.426L755.235 582.414L756.711 578.417C756.758 578.239 756.844 578.074 756.962 577.933C757.08 577.792 757.227 577.679 757.394 577.602C757.561 577.525 757.743 577.485 757.927 577.486C758.111 577.488 758.292 577.529 758.458 577.609L765.987 581.61C766.326 581.801 766.577 582.117 766.686 582.49C766.813 582.886 766.805 583.314 766.661 583.704L766.105 585.21C767.543 587.131 769.766 594.729 767.413 597.671L769.189 607.475C769.228 607.836 769.139 608.198 768.937 608.5C768.736 608.801 768.435 609.023 768.087 609.125L749.534 611.506C749.462 611.521 749.388 611.528 749.315 611.528C749.002 611.524 748.703 611.397 748.483 611.176Z" fill="#6C63FF"/>
<path d="M775.491 595.331C775.373 595.442 775.263 595.563 775.164 595.692L760.612 594.686L759.05 591.504L753.941 593.233L756.158 599.135C756.337 599.611 756.666 600.017 757.095 600.291C757.524 600.565 758.031 600.692 758.538 600.654L775.086 599.399C775.453 599.908 775.965 600.293 776.556 600.503C777.146 600.714 777.787 600.74 778.393 600.577C778.998 600.414 779.54 600.071 779.946 599.593C780.351 599.115 780.602 598.524 780.664 597.9C780.726 597.276 780.597 596.648 780.294 596.099C779.99 595.551 779.527 595.107 778.965 594.828C778.404 594.549 777.77 594.448 777.15 594.538C776.529 594.628 775.951 594.904 775.491 595.331V595.331Z" fill="#A0616A"/>
<path d="M760.07 594.738L753.727 596.851C753.547 596.911 753.356 596.931 753.167 596.911C752.977 596.89 752.795 596.829 752.632 596.732C752.468 596.634 752.328 596.503 752.22 596.346C752.112 596.189 752.039 596.012 752.006 595.824L750.85 589.259C750.547 588.334 750.624 587.326 751.064 586.457C751.503 585.588 752.268 584.929 753.193 584.624C754.117 584.319 755.125 584.394 755.995 584.831C756.864 585.268 757.525 586.033 757.832 586.957L760.833 592.885C760.919 593.054 760.967 593.241 760.974 593.431C760.982 593.621 760.948 593.81 760.876 593.986C760.803 594.162 760.694 594.321 760.555 594.45C760.416 594.58 760.25 594.678 760.07 594.738Z" fill="#6C63FF"/>
<path d="M761.82 565.309C765.069 565.309 767.703 562.675 767.703 559.425C767.703 556.175 765.069 553.541 761.82 553.541C758.571 553.541 755.938 556.175 755.938 559.425C755.938 562.675 758.571 565.309 761.82 565.309Z" fill="#2F2E41"/>
<path d="M772.721 571.908C773.29 572.022 773.881 571.973 774.424 571.765C774.7 571.608 774.936 571.388 775.111 571.123C775.287 570.858 775.398 570.555 775.435 570.239C776.531 562.955 770.338 563.554 769.606 563.239C769.144 562.968 768.71 562.651 768.311 562.294C767.279 561.721 766.103 561.463 764.927 561.549C763.537 561.421 762.135 561.592 760.816 562.052C759.668 562.59 758.713 563.47 758.084 564.572C757.46 565.668 757.004 566.851 756.729 568.082C756.295 569.475 756.215 570.955 756.498 572.386C756.799 573.454 757.426 574.402 758.292 575.096C759.158 575.79 760.219 576.196 761.327 576.257C761.15 575.4 761.259 574.509 761.639 573.72C762.019 572.932 762.648 572.291 763.428 571.896C764.67 571.285 766.083 571.116 767.433 571.419C768.309 571.596 769.197 571.707 770.09 571.749C770.966 571.782 772.018 571.834 772.721 571.908Z" fill="#2F2E41"/>
<path d="M1338.09 670.872C1338.1 663.153 1341.17 655.752 1346.63 650.296C1352.09 644.84 1359.49 641.775 1367.21 641.775C1374.92 641.775 1382.32 644.84 1387.78 650.296C1393.24 655.752 1396.31 663.153 1396.32 670.872" fill="#F2F2F2"/>
<path d="M1367.2 670.87C1367 670.87 1366.8 670.787 1366.65 670.639C1366.5 670.491 1366.42 670.291 1366.42 670.083V654.736C1366.42 654.527 1366.5 654.327 1366.65 654.18C1366.8 654.032 1367 653.949 1367.2 653.949C1367.41 653.949 1367.61 654.032 1367.76 654.18C1367.91 654.327 1367.99 654.527 1367.99 654.736V670.083C1367.99 670.291 1367.91 670.491 1367.76 670.639C1367.61 670.787 1367.41 670.87 1367.2 670.87Z" fill="#CCCCCC"/>
<path d="M1367.2 665.598C1367.01 665.598 1366.83 665.531 1366.69 665.408L1357.25 657.303C1357.17 657.236 1357.1 657.154 1357.06 657.061C1357.01 656.969 1356.98 656.868 1356.97 656.764C1356.96 656.661 1356.98 656.557 1357.01 656.458C1357.04 656.359 1357.09 656.267 1357.16 656.188C1357.23 656.11 1357.31 656.045 1357.4 655.998C1357.49 655.951 1357.6 655.924 1357.7 655.916C1357.8 655.909 1357.91 655.922 1358.01 655.955C1358.1 655.988 1358.2 656.04 1358.27 656.108L1367.71 664.214C1367.84 664.319 1367.92 664.458 1367.96 664.614C1368 664.77 1368 664.934 1367.94 665.085C1367.88 665.235 1367.78 665.366 1367.65 665.457C1367.52 665.549 1367.36 665.598 1367.2 665.598L1367.2 665.598Z" fill="#CCCCCC"/>
<path d="M1427.79 670.872C1427.79 663.153 1430.86 655.752 1436.32 650.296C1441.78 644.84 1449.18 641.775 1456.9 641.775C1464.61 641.775 1472.02 644.84 1477.47 650.296C1482.93 655.752 1486 663.153 1486.01 670.872" fill="#F2F2F2"/>
</g>
<defs>
<clipPath id="clip0_1969_27268">
<rect width="1440" height="663" fill="white"/>
</clipPath>
</defs>
</svg>
