<?xml version="1.0" encoding="utf-8"?>
<!-- Generator: Adobe Illustrator 16.0.0, SVG Export Plug-In . SVG Version: 6.00 Build 0)  -->
<!DOCTYPE svg PUBLIC "-//W3C//DTD SVG 1.1//EN" "http://www.w3.org/Graphics/SVG/1.1/DTD/svg11.dtd">
<svg version="1.1" xmlns="http://www.w3.org/2000/svg" xmlns:xlink="http://www.w3.org/1999/xlink" x="0px" y="0px" width="1024px"
	 height="320px" viewBox="0 0 1024 320" enable-background="new 0 0 1024 320" xml:space="preserve">
<g id="Rectangle_2_1_" enable-background="new    ">
</g>
<g id="Group_3_1_">
	<g id="Rounded_Rectangle_3">
		<g>
			<path fill="#2196F2" d="M286.934,22.518H36.009c-9.447,0-17.103,8.694-17.103,19.424v155.415
				c0,10.724,7.655,19.426,17.103,19.426h250.925c9.445,0,17.108-8.702,17.108-19.426V41.942
				C304.042,31.212,296.379,22.518,286.934,22.518z"/>
		</g>
	</g>
	<g id="Rectangle_5">
		<g>
			<path fill-rule="evenodd" clip-rule="evenodd" fill="#FFFFFF" d="M225.775,130.92c0.438-2.447,0-4.471,0-4.471V68.138h-19.438
				v51.832h-64.79V87.574l-45.354,42.113l45.354,42.115v-32.396h71.269c7.897,0,11.137-3.24,12.402-6.479h0.557V130.92z"/>
		</g>
	</g>
	<g id="Clik.ai">
		<g>
			<path fill="#2196F2" d="M335.445,117.45c0.253-50.031,42.229-90.712,92.803-90.964c22.252,0,42.482,7.328,58.413,19.708
				c6.069,5.054,7.08,13.897,2.528,20.214c-5.057,6.317-14.414,7.328-20.229,2.78c-11.126-9.097-25.034-13.897-40.712-13.897
				c-17.448,0-33.632,7.074-45.517,18.193c-11.379,11.623-18.459,26.784-18.459,43.966s7.081,32.848,18.459,43.966
				c11.885,11.119,28.068,18.192,45.517,18.192c15.678,0,29.333-4.801,40.712-13.897c5.816-4.295,15.172-3.284,20.229,2.781
				c4.551,6.315,3.541,15.412-2.528,20.213c-15.931,12.381-36.161,19.709-58.413,19.709
				C377.675,208.414,335.698,167.733,335.445,117.45z"/>
			<path fill="#2196F2" d="M536.731,31.539c7.839,0,14.161,6.317,14.161,13.897v149.08c0,7.58-6.322,13.897-14.161,13.897
				c-7.587,0-13.907-6.317-13.907-13.897V45.437C522.824,37.856,529.145,31.539,536.731,31.539z"/>
			<path fill="#2196F2" d="M611.58,50.49c0,7.581-5.816,13.898-13.655,13.898c-7.587,0-13.655-6.317-13.655-13.898v-5.306
				c0-7.58,6.068-13.645,13.655-13.645c7.839,0,13.655,6.064,13.655,13.645V50.49z M611.58,96.225v98.545
				c0,7.579-5.816,13.645-13.655,13.645c-7.587,0-13.655-6.065-13.655-13.645V96.225c0-8.085,6.068-13.897,13.655-13.897
				C605.764,82.327,611.58,88.139,611.58,96.225z"/>
			<path fill="#2196F2" d="M642.428,194.517V45.437c0-7.581,6.068-13.897,13.908-13.897c7.838,0,14.161,6.317,14.161,13.897v87.427
				l51.838-51.799c5.311-5.306,14.414-5.306,19.723,0c5.564,5.559,5.564,14.403,0,19.709l-37.93,37.901l38.942,46.747
				c4.805,6.064,4.046,14.908-2.023,19.709c-2.528,2.272-5.815,3.284-8.85,3.284c-4.046,0-8.092-1.769-10.621-5.054l-37.172-44.976
				l-13.907,13.896v22.235c0,7.58-6.323,13.897-14.161,13.897C648.496,208.414,642.428,202.097,642.428,194.517z"/>
			<path fill="#2196F2" d="M793.646,172.535c10.366,0,18.964,8.59,18.964,18.95c0,10.358-8.598,18.697-18.964,18.697
				c-10.369,0-18.713-8.339-18.713-18.697C774.934,181.125,783.277,172.535,793.646,172.535z"/>
			<path fill="#2196F2" d="M955.481,145.497v49.525c0,7.326-6.068,13.392-13.401,13.392c-6.576,0-11.633-4.801-13.15-10.866
				c-9.609,6.823-20.988,10.866-33.631,10.866c-17.196,0-32.115-7.074-42.988-18.445c-10.873-11.623-17.195-27.289-17.195-44.472
				c0-17.435,6.322-33.101,17.195-44.471c10.873-11.623,25.792-18.951,42.988-18.951c12.643,0,24.021,4.296,33.631,11.118
				c1.518-6.317,6.574-11.118,13.15-11.118c7.333,0,13.401,6.064,13.401,13.645V145.497z M928.678,145.497
				c0-10.612-3.794-19.708-9.863-26.025c-6.068-6.823-14.665-10.36-23.516-10.36c-9.104,0-17.701,3.538-23.517,10.36
				c-6.069,6.317-9.609,15.414-9.609,26.025c0,10.36,3.54,19.457,9.609,26.026c5.815,6.316,14.413,9.854,23.517,9.854
				c8.851,0,17.447-3.538,23.516-9.854C924.884,164.954,928.678,155.857,928.678,145.497z"/>
			<path fill="#2196F2" d="M1007.318,50.49c0,7.581-5.817,13.898-13.655,13.898c-7.586,0-13.654-6.317-13.654-13.898v-5.306
				c0-7.58,6.068-13.645,13.654-13.645c7.838,0,13.655,6.064,13.655,13.645V50.49z M1007.318,96.225v98.545
				c0,7.579-5.817,13.645-13.655,13.645c-7.586,0-13.654-6.065-13.654-13.645V96.225c0-8.085,6.068-13.897,13.654-13.897
				C1001.501,82.327,1007.318,88.139,1007.318,96.225z"/>
		</g>
	</g>
	<g id="Your_CRE_Analyst_on_Cloud">
		<g>
			<path fill="#6B6B6B" d="M48.382,291.966H40.88v-22.317L19.957,236.55h8.747l15.908,26.614l15.871-26.614h8.822l-20.923,33.099
				V291.966z"/>
			<path fill="#6B6B6B" d="M65.372,271.722c0-6.007,1.671-11.058,5.014-15.154c3.342-4.097,7.891-6.146,13.646-6.146
				c5.881,0,10.48,2.073,13.798,6.221c3.317,4.146,4.976,9.173,4.976,15.079c0,5.932-1.646,10.983-4.938,15.154
				c-3.292,4.173-7.904,6.259-13.835,6.259c-5.705,0-10.242-2.022-13.609-6.069C67.055,283.02,65.372,277.904,65.372,271.722z
				 M72.308,271.722c0,4.499,1.018,8.199,3.053,11.103c2.036,2.902,4.926,4.354,8.671,4.354c3.87,0,6.811-1.521,8.821-4.562
				c2.01-3.04,3.016-6.673,3.016-10.895c0-4.272-1.006-7.897-3.016-10.876c-2.011-2.979-4.951-4.467-8.821-4.467
				c-3.594,0-6.446,1.4-8.558,4.203S72.308,267.098,72.308,271.722z"/>
			<path fill="#6B6B6B" d="M113.085,251.591h6.786v26.804c0,2.966,0.672,5.184,2.017,6.653c1.344,1.471,3.273,2.206,5.787,2.206
				c3.493,0,6.22-1.237,8.18-3.714c1.96-2.475,2.94-5.712,2.94-9.707v-22.242h6.786v40.375h-6.409v-5.881l-0.151-0.151
				c-2.563,4.801-6.836,7.201-12.817,7.201c-3.871,0-7.025-1.057-9.462-3.168c-2.438-2.11-3.657-5.226-3.657-9.349V251.591z"/>
			<path fill="#6B6B6B" d="M165.248,291.966h-6.786v-40.375h6.408v6.71h0.151c2.94-5.252,6.723-7.879,11.347-7.879
				c0.729,0,1.319,0.076,1.772,0.227v7.05h-2.525c-3.042,0-5.53,1.03-7.465,3.091c-1.935,2.062-2.902,4.625-2.902,7.69V291.966z"/>
			<path fill="#6B6B6B" d="M247.556,253.212c-0.829-3.771-2.57-6.629-5.221-8.576c-2.652-1.947-6.088-2.922-10.311-2.922
				c-5.454,0-9.839,1.979-13.157,5.938c-3.317,3.958-4.976,9.304-4.976,16.039c0,7.792,1.57,13.591,4.712,17.398
				c3.141,3.808,7.69,5.711,13.646,5.711c3.921,0,7.295-1.301,10.122-3.901c2.827-2.602,4.731-6.377,5.711-11.329h7.275
				c-0.98,7.113-3.682,12.535-8.105,16.268c-4.424,3.731-9.801,5.598-16.135,5.598c-7.565,0-13.616-2.601-18.152-7.803
				c-4.536-5.203-6.804-12.429-6.804-21.677c0-8.922,2.368-15.966,7.106-21.13c4.737-5.164,10.989-7.748,18.755-7.748
				c6.434,0,11.648,1.66,15.645,4.978c3.996,3.316,6.371,7.702,7.125,13.156H247.556z"/>
			<path fill="#6B6B6B" d="M275.064,291.966h-7.502V236.55h25.635c5.957,0,10.467,1.27,13.534,3.807
				c3.065,2.539,4.599,6.233,4.599,11.084c0,3.192-0.616,5.855-1.847,7.991c-1.232,2.138-3.167,3.895-5.806,5.278
				c2.262,0.829,3.895,1.992,4.901,3.487c1.005,1.496,1.583,3.814,1.734,6.955l0.49,10.329c0.049,1.71,0.32,2.909,0.811,3.601
				c0.49,0.691,1.174,1.238,2.054,1.64v1.244h-9.273c-0.478-1.382-0.817-3.48-1.018-6.296c-0.201-2.813-0.302-5.353-0.302-7.615
				c0-1.131-0.101-2.286-0.301-3.468c-0.201-1.181-0.641-2.25-1.32-3.204c-0.678-0.955-1.671-1.729-2.978-2.318
				c-1.307-0.59-3.066-0.886-5.278-0.886h-18.132V291.966z M275.064,261.77h17.341c4.021,0,6.905-0.823,8.652-2.469
				c1.746-1.646,2.62-4.016,2.62-7.106c0-2.815-0.754-5.058-2.262-6.729c-1.508-1.671-4.097-2.507-7.766-2.507h-18.584V261.77z"/>
			<path fill="#6B6B6B" d="M366.282,291.966h-40.902V236.55h40.375v6.634h-32.873v16.965h30.31v6.635h-30.31v18.547h33.4V291.966z"
				/>
			<path fill="#6B6B6B" d="M407.989,275.831l-5.805,16.135h-7.69l20.847-55.416h8.482l20.056,55.416h-8.181l-5.466-16.135H407.989z
				 M427.517,269.196l-8.18-24.392h-0.151l-8.896,24.392H427.517z"/>
			<path fill="#6B6B6B" d="M485.711,291.966h-6.786v-24.844c0-3.819-0.667-6.54-1.998-8.161c-1.333-1.621-3.544-2.432-6.635-2.432
				c-3.042,0-5.58,1.156-7.615,3.469c-2.036,2.312-3.054,5.628-3.054,9.951v22.017h-6.786v-40.375h6.409v5.692h0.151
				c3.187-4.573,7.252-6.861,12.196-6.861c4.568,0,8.063,1.213,10.484,3.638c2.422,2.427,3.633,5.899,3.633,10.424V291.966z"/>
			<path fill="#6B6B6B" d="M497.838,263.88c0.15-4.549,1.627-7.928,4.43-10.14c2.801-2.213,6.88-3.318,12.233-3.318
				c4.272,0,7.854,0.969,10.743,2.903c2.89,1.935,4.335,4.725,4.335,8.369v23.26c0,1.583,0.717,2.375,2.149,2.375
				c0.579,0,1.319-0.101,2.225-0.302v4.938c-1.231,0.502-2.513,0.754-3.846,0.754c-2.313,0-4.034-0.496-5.165-1.489
				c-1.13-0.992-1.721-2.544-1.771-4.655c-3.87,4.373-8.733,6.56-14.589,6.56c-3.82,0-6.887-1.081-9.198-3.242
				c-2.312-2.161-3.468-4.977-3.468-8.444c0-3.544,1.005-6.409,3.016-8.596c2.01-2.187,4.938-3.506,8.784-3.958l11.987-1.47
				c2.162-0.327,3.242-1.924,3.242-4.788c0-2.111-0.784-3.732-2.354-4.863c-1.572-1.131-3.954-1.696-7.145-1.696
				c-2.84,0-5.021,0.629-6.541,1.885c-1.521,1.256-2.432,3.229-2.733,5.918H497.838z M522.681,271.345
				c-0.503,0.528-1.488,0.954-2.958,1.282c-1.47,0.327-4.217,0.753-8.238,1.281c-2.966,0.352-5.146,1.081-6.541,2.187
				c-1.395,1.106-2.092,2.563-2.092,4.373c0,2.212,0.591,3.934,1.772,5.165s3.066,1.847,5.655,1.847c3.243,0,6.12-0.923,8.632-2.771
				s3.77-4.091,3.77-6.729V271.345z"/>
			<path fill="#6B6B6B" d="M550.038,291.966h-6.786V236.55h6.786V291.966z"/>
			<path fill="#6B6B6B" d="M587.988,251.591h7.39l-14.438,39.621c-0.252,0.704-0.504,1.369-0.754,1.997
				c-2.188,5.831-4.072,9.833-5.655,12.008c-1.583,2.174-4.146,3.261-7.69,3.261c-1.86,0-3.381-0.202-4.562-0.604v-6.182
				c1.282,0.452,2.689,0.679,4.223,0.679c1.658,0,2.87-0.522,3.637-1.565s1.905-3.601,3.412-7.671l-15.003-41.544h7.652
				l10.819,32.873h0.151L587.988,251.591z"/>
			<path fill="#6B6B6B" d="M625.562,263.089c-0.101-2.413-0.961-4.146-2.582-5.202s-3.953-1.583-6.993-1.583
				c-2.212,0-4.104,0.489-5.674,1.47c-1.571,0.979-2.356,2.387-2.356,4.222c0,1.459,0.465,2.532,1.396,3.224
				c0.93,0.692,2.94,1.426,6.031,2.206l6.711,1.696c4.071,1.029,6.979,2.343,8.728,3.939c1.746,1.595,2.619,3.825,2.619,6.691
				c0,3.971-1.451,7.194-4.354,9.669c-2.902,2.476-6.78,3.714-11.63,3.714c-5.654,0-9.933-1.175-12.836-3.525
				c-2.902-2.35-4.379-5.887-4.43-10.612h6.56c0.101,2.79,1.023,4.863,2.771,6.221s4.366,2.036,7.86,2.036
				c2.84,0,5.095-0.566,6.768-1.697c1.671-1.13,2.507-2.7,2.507-4.712c0-1.433-0.541-2.576-1.621-3.431
				c-1.081-0.854-3.218-1.646-6.409-2.375l-7.879-1.923c-3.192-0.804-5.548-2.003-7.068-3.601c-1.521-1.595-2.281-3.663-2.281-6.2
				c0-3.971,1.42-7.113,4.26-9.426c2.84-2.311,6.547-3.468,11.121-3.468c4.876,0,8.614,1.188,11.217,3.563
				c2.601,2.374,3.977,5.409,4.127,9.104H625.562z"/>
			<path fill="#6B6B6B" d="M652.277,257.208v26.276c0,1.03,0.282,1.815,0.849,2.355c0.564,0.541,1.576,0.811,3.034,0.811h2.602
				v5.315c-2.464,0.352-4.161,0.527-5.09,0.527c-2.841,0-4.914-0.679-6.219-2.036c-1.309-1.356-1.961-3.555-1.961-6.597v-26.652
				h-5.466v-5.617h5.466v-11.271h6.785v11.271h6.484v5.617H652.277z"/>
			<path fill="#6B6B6B" d="M687.501,271.722c0-6.007,1.671-11.058,5.014-15.154s7.891-6.146,13.647-6.146
				c5.881,0,10.48,2.073,13.797,6.221c3.317,4.146,4.977,9.173,4.977,15.079c0,5.932-1.646,10.983-4.938,15.154
				c-3.293,4.173-7.904,6.259-13.835,6.259c-5.706,0-10.242-2.022-13.609-6.069C689.185,283.02,687.501,277.904,687.501,271.722z
				 M694.438,271.722c0,4.499,1.018,8.199,3.054,11.103c2.035,2.902,4.925,4.354,8.671,4.354c3.869,0,6.81-1.521,8.82-4.562
				c2.011-3.04,3.016-6.673,3.016-10.895c0-4.272-1.005-7.897-3.016-10.876s-4.951-4.467-8.82-4.467c-3.596,0-6.446,1.4-8.558,4.203
				S694.438,267.098,694.438,271.722z"/>
			<path fill="#6B6B6B" d="M768.465,291.966h-6.785v-24.844c0-3.819-0.667-6.54-1.999-8.161c-1.333-1.621-3.543-2.432-6.635-2.432
				c-3.041,0-5.58,1.156-7.614,3.469c-2.036,2.312-3.055,5.628-3.055,9.951v22.017h-6.785v-40.375h6.409v5.692h0.149
				c3.188-4.573,7.254-6.861,12.197-6.861c4.567,0,8.062,1.213,10.484,3.638c2.422,2.427,3.633,5.899,3.633,10.424V291.966z"/>
			<path fill="#6B6B6B" d="M842.141,253.212c-0.83-3.771-2.57-6.629-5.221-8.576c-2.653-1.947-6.09-2.922-10.312-2.922
				c-5.454,0-9.839,1.979-13.156,5.938c-3.318,3.958-4.977,9.304-4.977,16.039c0,7.792,1.569,13.591,4.712,17.398
				c3.142,3.808,7.691,5.711,13.647,5.711c3.921,0,7.294-1.301,10.122-3.901c2.827-2.602,4.73-6.377,5.711-11.329h7.275
				c-0.98,7.113-3.683,12.535-8.104,16.268c-4.424,3.731-9.802,5.598-16.136,5.598c-7.564,0-13.615-2.601-18.151-7.803
				c-4.537-5.203-6.805-12.429-6.805-21.677c0-8.922,2.369-15.966,7.107-21.13c4.735-5.164,10.988-7.748,18.754-7.748
				c6.434,0,11.648,1.66,15.645,4.978c3.997,3.316,6.371,7.702,7.125,13.156H842.141z"/>
			<path fill="#6B6B6B" d="M867.764,291.966h-6.786V236.55h6.786V291.966z"/>
			<path fill="#6B6B6B" d="M878.458,271.722c0-6.007,1.671-11.058,5.014-15.154c3.342-4.097,7.892-6.146,13.647-6.146
				c5.88,0,10.479,2.073,13.797,6.221c3.318,4.146,4.977,9.173,4.977,15.079c0,5.932-1.646,10.983-4.939,15.154
				c-3.292,4.173-7.903,6.259-13.834,6.259c-5.706,0-10.242-2.022-13.609-6.069C880.141,283.02,878.458,277.904,878.458,271.722z
				 M885.395,271.722c0,4.499,1.018,8.199,3.054,11.103c2.036,2.902,4.925,4.354,8.671,4.354c3.869,0,6.809-1.521,8.821-4.562
				c2.01-3.04,3.016-6.673,3.016-10.895c0-4.272-1.006-7.897-3.016-10.876c-2.013-2.979-4.952-4.467-8.821-4.467
				c-3.595,0-6.447,1.4-8.559,4.203C886.45,263.385,885.395,267.098,885.395,271.722z"/>
			<path fill="#6B6B6B" d="M926.172,251.591h6.785v26.804c0,2.966,0.673,5.184,2.018,6.653c1.344,1.471,3.273,2.206,5.786,2.206
				c3.492,0,6.221-1.237,8.181-3.714c1.961-2.475,2.94-5.712,2.94-9.707v-22.242h6.786v40.375h-6.409v-5.881l-0.15-0.151
				c-2.563,4.801-6.837,7.201-12.817,7.201c-3.87,0-7.025-1.057-9.463-3.168c-2.438-2.11-3.656-5.226-3.656-9.349V251.591z"/>
			<path fill="#6B6B6B" d="M1005.363,291.966h-6.409v-5.542h-0.149c-2.563,4.475-6.447,6.711-11.649,6.711
				c-5.604,0-9.939-2.137-13.006-6.409s-4.599-9.65-4.599-16.135c0-5.981,1.52-10.838,4.562-14.571
				c3.04-3.731,7.124-5.598,12.251-5.598c5.052,0,9.072,2.288,12.063,6.861l0.151-0.452V236.55h6.785V291.966z M976.563,271.646
				c0,5.002,0.992,8.853,2.978,11.554c1.985,2.702,4.624,4.054,7.917,4.054c3.141,0,5.768-1.156,7.879-3.469
				s3.166-5.68,3.166-10.104c0-5.68-0.898-9.958-2.694-12.836c-1.798-2.877-4.531-4.316-8.199-4.316
				c-3.494,0-6.208,1.143-8.144,3.43C977.529,262.248,976.563,266.143,976.563,271.646z"/>
		</g>
	</g>
</g>
</svg>
