<?xml version="1.0" encoding="UTF-8" standalone="no"?><!DOCTYPE svg PUBLIC "-//W3C//DTD SVG 1.1//EN" "http://www.w3.org/Graphics/SVG/1.1/DTD/svg11.dtd"><svg width="100%" height="100%" viewBox="0 0 1346 971" version="1.1" xmlns="http://www.w3.org/2000/svg" xmlns:xlink="http://www.w3.org/1999/xlink" xml:space="preserve" xmlns:serif="http://www.serif.com/" style="fill-rule:evenodd;clip-rule:evenodd;stroke-linejoin:round;stroke-miterlimit:2;"><g id="Group_3_1_"><g id="Rounded_Rectangle_3"><g><path d="M1195.56,93.825l-1045.52,0c-39.362,0 -71.262,36.225 -71.262,80.933l-0,647.563c-0,44.683 31.896,80.942 71.262,80.942l1045.52,-0c39.355,-0 71.284,-36.259 71.284,-80.942l-0,-647.563c-0,-44.708 -31.929,-80.933 -71.284,-80.933Z" style="fill:#2196f2;fill-rule:nonzero;"/></g></g><g id="Rectangle_5"><g><path d="M940.729,545.5c1.825,-10.196 0,-18.629 0,-18.629l0,-242.963l-80.991,0l-0,215.967l-269.959,0l0,-134.983l-188.975,175.471l188.975,175.479l0,-134.984l296.954,0c32.905,0 46.405,-13.5 51.675,-26.996l2.321,0l0,-8.362Z" style="fill:#fff;"/></g></g><g id="Clik.ai"></g><g id="Your_CRE_Analyst_on_Cloud"></g></g></svg>