<?xml version="1.0" encoding="UTF-8" standalone="no"?><!DOCTYPE svg PUBLIC "-//W3C//DTD SVG 1.1//EN" "http://www.w3.org/Graphics/SVG/1.1/DTD/svg11.dtd"><svg width="100%" height="100%" viewBox="0 0 1100 392" version="1.1" xmlns="http://www.w3.org/2000/svg" xmlns:xlink="http://www.w3.org/1999/xlink" xml:space="preserve" xmlns:serif="http://www.serif.com/" style="fill-rule:evenodd;clip-rule:evenodd;stroke-linejoin:round;stroke-miterlimit:2;"><rect x="0" y="0" width="1100" height="391.667" style="fill:#fff;"/><path d="M915.321,235.832l-0,-83.359l-9.167,0l0,83.359l9.167,0Zm-9.167,-111.864c-1.079,1.182 -1.621,2.645 -1.621,4.392c0,1.695 0.542,3.158 1.621,4.391c1.129,1.181 2.671,1.772 4.621,1.772c1.954,-0 3.492,-0.591 4.625,-1.772c1.179,-1.233 1.771,-2.696 1.771,-4.391c-0,-1.747 -0.592,-3.21 -1.771,-4.392c-1.133,-1.233 -2.671,-1.849 -4.625,-1.849c-1.95,0 -3.492,0.616 -4.621,1.849Zm-226.967,-0.308l9.017,0l42.45,112.172l-9.862,0l-11.596,-31.433l-50.946,0l-11.571,31.433l-9.862,0l42.37,-112.172Zm-17.933,72.573l44.929,-0l-22.487,-60.958l-22.442,60.958Zm132.108,11.633c1.134,2.209 1.696,4.443 1.696,6.703c0,2.619 -0.821,5.059 -2.462,7.319c-1.646,2.26 -4.059,4.083 -7.242,5.47c-3.187,1.387 -7.142,2.08 -11.867,2.08c-3.441,-0 -6.933,-0.514 -10.479,-1.541c-3.491,-1.027 -6.446,-2.774 -8.858,-5.239c-2.413,-2.516 -3.775,-5.932 -4.083,-10.246l-9.167,-0c-0,4.314 1.233,8.397 3.696,12.249c2.516,3.801 6.191,6.883 11.016,9.245c4.88,2.312 10.838,3.467 17.875,3.467c4.675,-0 8.888,-0.565 12.634,-1.695c3.804,-1.13 7.037,-2.722 9.708,-4.776c2.721,-2.055 4.804,-4.494 6.242,-7.32c1.437,-2.876 2.158,-6.034 2.158,-9.475c0,-4.417 -1.029,-8.167 -3.083,-11.249c-2.054,-3.133 -5.238,-5.752 -9.554,-7.858c-4.263,-2.157 -9.759,-3.98 -16.488,-5.47c-4.671,-1.078 -8.475,-2.183 -11.4,-3.313c-2.929,-1.13 -5.187,-2.336 -6.779,-3.62c-1.542,-1.285 -2.621,-2.671 -3.238,-4.161c-0.562,-1.541 -0.845,-3.235 -0.845,-5.084c-0,-2.363 0.666,-4.649 2.004,-6.857c1.383,-2.208 3.566,-4.032 6.546,-5.47c2.979,-1.438 6.858,-2.157 11.633,-2.157c4.625,-0 8.525,0.822 11.712,2.465c3.234,1.644 5.675,3.749 7.317,6.317c1.696,2.569 2.542,5.291 2.542,8.167l9.171,0c-0,-4.725 -1.234,-8.962 -3.7,-12.712c-2.413,-3.749 -5.934,-6.703 -10.555,-8.86c-4.57,-2.208 -10.066,-3.313 -16.487,-3.313c-4.521,0 -8.604,0.591 -12.25,1.773c-3.596,1.181 -6.675,2.825 -9.246,4.93c-2.517,2.055 -4.467,4.469 -5.854,7.242c-1.333,2.722 -2.004,5.624 -2.004,8.706c-0,3.441 0.646,6.42 1.929,8.937c1.283,2.516 3.158,4.673 5.621,6.471c2.466,1.798 5.496,3.339 9.091,4.623c3.646,1.283 7.784,2.439 12.405,3.466c6.216,1.285 10.916,2.851 14.1,4.7c3.233,1.849 5.416,3.877 6.545,6.086Zm81.667,6.703c0,-2.26 -0.567,-4.494 -1.696,-6.703c-1.129,-2.209 -3.312,-4.237 -6.55,-6.086c-3.183,-1.849 -7.883,-3.415 -14.096,-4.7c-4.625,-1.027 -8.758,-2.183 -12.404,-3.466c-3.596,-1.284 -6.625,-2.825 -9.091,-4.623c-2.467,-1.798 -4.342,-3.955 -5.625,-6.471c-1.284,-2.517 -1.925,-5.496 -1.925,-8.937c-0,-3.082 0.666,-5.984 2.004,-8.706c1.387,-2.773 3.337,-5.187 5.854,-7.242c2.567,-2.105 5.65,-3.749 9.246,-4.93c3.646,-1.182 7.729,-1.773 12.25,-1.773c6.421,0 11.912,1.105 16.487,3.313c4.621,2.157 8.138,5.111 10.554,8.86c2.463,3.75 3.696,7.987 3.696,12.712l-9.166,0c-0,-2.876 -0.85,-5.598 -2.542,-8.167c-1.646,-2.568 -4.083,-4.673 -7.321,-6.317c-3.183,-1.643 -7.087,-2.465 -11.708,-2.465c-4.779,-0 -8.654,0.719 -11.634,2.157c-2.979,1.438 -5.162,3.262 -6.55,5.47c-1.333,2.208 -2.004,4.494 -2.004,6.857c0,1.849 0.284,3.543 0.85,5.084c0.617,1.49 1.696,2.876 3.234,4.161c1.591,1.284 3.854,2.49 6.779,3.62c2.929,1.13 6.729,2.235 11.404,3.313c6.729,1.49 12.225,3.313 16.487,5.47c4.313,2.106 7.496,4.725 9.555,7.858c2.054,3.082 3.079,6.832 3.079,11.249c-0,3.441 -0.717,6.599 -2.159,9.475c-1.437,2.825 -3.516,5.265 -6.237,7.32c-2.671,2.054 -5.908,3.646 -9.708,4.776c-3.75,1.13 -7.963,1.695 -12.634,1.695c-7.037,-0 -12.996,-1.156 -17.875,-3.467c-4.829,-2.362 -8.5,-5.444 -11.016,-9.245c-2.467,-3.852 -3.7,-7.935 -3.7,-12.249l9.17,-0c0.309,4.314 1.667,7.73 4.084,10.246c2.412,2.465 5.366,4.212 8.858,5.239c3.546,1.027 7.038,1.541 10.479,1.541c4.725,-0 8.679,-0.693 11.863,-2.081c3.183,-1.386 5.6,-3.21 7.241,-5.469c1.646,-2.26 2.467,-4.7 2.467,-7.319Zm115.409,-0c-0,-2.26 -0.567,-4.494 -1.696,-6.703c-1.13,-2.209 -3.313,-4.237 -6.55,-6.086c-3.184,-1.849 -7.884,-3.415 -14.096,-4.7c-4.625,-1.027 -8.759,-2.183 -12.404,-3.466c-3.596,-1.284 -6.625,-2.825 -9.092,-4.623c-2.467,-1.798 -4.342,-3.955 -5.625,-6.471c-1.283,-2.517 -1.925,-5.496 -1.925,-8.937c0,-3.082 0.667,-5.984 2.004,-8.706c1.388,-2.773 3.338,-5.187 5.854,-7.242c2.567,-2.105 5.65,-3.749 9.246,-4.93c3.646,-1.182 7.729,-1.773 12.25,-1.773c6.417,0 11.913,1.105 16.483,3.313c4.625,2.157 8.142,5.111 10.559,8.86c2.462,3.75 3.696,7.987 3.696,12.712l-9.167,0c-0,-2.876 -0.85,-5.598 -2.542,-8.167c-1.646,-2.568 -4.083,-4.673 -7.321,-6.317c-3.183,-1.643 -7.087,-2.465 -11.708,-2.465c-4.779,-0 -8.654,0.719 -11.633,2.157c-2.979,1.438 -5.163,3.262 -6.55,5.47c-1.334,2.208 -2.004,4.494 -2.004,6.857c-0,1.849 0.283,3.543 0.85,5.084c0.616,1.49 1.691,2.876 3.233,4.161c1.592,1.284 3.854,2.49 6.779,3.62c2.929,1.13 6.729,2.235 11.404,3.313c6.73,1.49 12.225,3.313 16.488,5.47c4.312,2.106 7.496,4.725 9.55,7.858c2.058,3.082 3.083,6.832 3.083,11.249c0,3.441 -0.721,6.599 -2.158,9.475c-1.438,2.825 -3.517,5.265 -6.238,7.32c-2.67,2.054 -5.908,3.646 -9.708,4.776c-3.75,1.13 -7.962,1.695 -12.633,1.695c-7.038,-0 -12.996,-1.156 -17.875,-3.467c-4.829,-2.362 -8.5,-5.444 -11.017,-9.245c-2.467,-3.852 -3.7,-7.935 -3.7,-12.249l9.171,-0c0.308,4.314 1.667,7.73 4.083,10.246c2.413,2.465 5.367,4.212 8.859,5.239c3.541,1.027 7.037,1.541 10.479,1.541c4.725,-0 8.679,-0.693 11.862,-2.081c3.184,-1.386 5.6,-3.21 7.242,-5.469c1.646,-2.26 2.467,-4.7 2.467,-7.319Zm61.554,-54.546l-0,-7.55l-17.259,0l0,-21.417l-9.166,-0l-0,21.417l-15.329,0l-0,7.55l15.329,0l-0,55.47c-0,5.547 0.771,9.939 2.312,13.174c1.542,3.185 3.671,5.445 6.396,6.78c2.721,1.284 5.854,1.926 9.396,1.926c1.8,-0 3.596,-0.128 5.396,-0.385c1.796,-0.206 3.258,-0.488 4.391,-0.848l-0.387,-7.781c-1.025,0.206 -2.183,0.411 -3.467,0.616c-1.283,0.155 -2.621,0.232 -4.004,0.232c-1.904,-0 -3.675,-0.334 -5.317,-1.002c-1.645,-0.668 -2.979,-1.977 -4.008,-3.929c-1.025,-1.952 -1.542,-4.854 -1.542,-8.706l0,-55.547l17.259,0Zm-839.144,75.807l-0,-112.173l-25.039,0l0,112.173l25.039,-0Zm42.604,-59.065l-0,59.065l-24.114,-0l-0,-83.359l22.65,-0l0.803,9.766c0.117,-0.15 0.234,-0.298 0.352,-0.444c2.877,-3.544 6.292,-6.241 10.247,-8.09c4.006,-1.848 8.423,-2.773 13.251,-2.773c3.904,-0 7.473,0.565 10.709,1.695c3.235,1.13 6.009,2.953 8.32,5.47c2.363,2.465 4.16,5.752 5.393,9.861c1.233,4.058 1.849,9.065 1.849,15.023l0,52.851l-24.191,-0l0,-52.928c0,-3.492 -0.488,-6.189 -1.463,-8.089c-0.976,-1.901 -2.415,-3.236 -4.315,-4.006c-1.849,-0.771 -4.109,-1.156 -6.78,-1.156c-2.824,-0 -5.238,0.565 -7.241,1.695c-2.004,1.079 -3.647,2.594 -4.931,4.545c-0.187,0.284 -0.367,0.575 -0.539,0.874Zm85.438,59.065l23.96,-0l27.658,-83.359l-25.269,-0l-14.37,54.745l-14.29,-54.745l-25.346,-0l27.657,83.359Zm80.893,-1.618c5.238,2.105 11.171,3.158 17.796,3.158c5.396,0 10.221,-0.719 14.484,-2.157c4.266,-1.438 7.912,-3.287 10.941,-5.547c3.084,-2.311 5.471,-4.699 7.167,-7.165l-11.25,-12.866c-2.517,3.133 -5.496,5.445 -8.938,6.934c-3.441,1.438 -7.062,2.157 -10.862,2.157c-3.079,0 -5.829,-0.539 -8.242,-1.618c-2.416,-1.078 -4.471,-2.568 -6.162,-4.468c-1.696,-1.9 -2.979,-4.186 -3.854,-6.857c-0.43,-1.318 -0.755,-2.704 -0.975,-4.16l52.362,0l0,-9.861c0,-6.215 -0.85,-11.813 -2.542,-16.795c-1.645,-5.034 -4.058,-9.322 -7.241,-12.866c-3.188,-3.595 -7.088,-6.343 -11.713,-8.244c-4.621,-1.951 -9.887,-2.927 -15.791,-2.927c-6.321,-0 -11.942,1.078 -16.875,3.236c-4.93,2.105 -9.09,5.11 -12.48,9.014c-3.338,3.852 -5.88,8.397 -7.627,13.636c-1.746,5.239 -2.619,10.965 -2.619,17.18l-0,2.928c-0,5.546 0.95,10.76 2.851,15.639c1.9,4.879 4.647,9.194 8.243,12.943c3.647,3.698 8.089,6.6 13.327,8.706Zm0.288,-48.074c0.075,-0.547 0.158,-1.086 0.254,-1.618c0.513,-2.979 1.333,-5.573 2.463,-7.781c1.183,-2.26 2.75,-4.007 4.7,-5.239c1.954,-1.233 4.391,-1.849 7.32,-1.849c3.08,-0 5.621,0.616 7.625,1.849c2.055,1.181 3.596,2.876 4.625,5.085c1.075,2.208 1.617,4.776 1.617,7.704l0,1.849l-28.604,-0Zm108.262,26.502c0,-1.541 -0.487,-2.902 -1.462,-4.083c-0.925,-1.182 -2.617,-2.26 -5.083,-3.236c-2.417,-0.976 -5.83,-1.951 -10.246,-2.927c-4.163,-0.874 -8.038,-2.004 -11.634,-3.39c-3.595,-1.439 -6.729,-3.159 -9.4,-5.162c-2.67,-2.055 -4.75,-4.468 -6.241,-7.242c-1.488,-2.825 -2.234,-6.035 -2.234,-9.63c0,-3.493 0.746,-6.805 2.234,-9.938c1.541,-3.134 3.75,-5.907 6.625,-8.321c2.929,-2.414 6.475,-4.314 10.633,-5.701c4.213,-1.387 8.988,-2.08 14.329,-2.08c7.346,-0 13.688,1.155 19.029,3.467c5.342,2.26 9.45,5.444 12.33,9.553c2.875,4.057 4.312,8.705 4.312,13.945l-24.037,-0c-0,-2.158 -0.413,-4.033 -1.234,-5.625c-0.821,-1.592 -2.079,-2.825 -3.775,-3.698c-1.696,-0.924 -3.929,-1.387 -6.7,-1.387c-2.158,0 -4.058,0.386 -5.704,1.156c-1.592,0.719 -2.85,1.721 -3.775,3.005c-0.871,1.284 -1.308,2.773 -1.308,4.468c-0,1.181 0.258,2.26 0.771,3.236c0.566,0.925 1.412,1.797 2.541,2.62c1.184,0.77 2.696,1.463 4.546,2.08c1.9,0.616 4.213,1.207 6.933,1.772c5.805,1.078 11.096,2.593 15.871,4.545c4.829,1.952 8.679,4.648 11.559,8.089c2.925,3.441 4.387,7.987 4.387,13.636c0,3.698 -0.846,7.088 -2.542,10.17c-1.641,3.082 -4.029,5.778 -7.162,8.089c-3.133,2.311 -6.883,4.109 -11.25,5.393c-4.367,1.284 -9.296,1.926 -14.792,1.926c-7.858,0 -14.508,-1.412 -19.954,-4.237c-5.442,-2.825 -9.554,-6.369 -12.325,-10.632c-2.721,-4.314 -4.083,-8.731 -4.083,-13.251l22.571,0c0.104,2.774 0.795,5.034 2.083,6.78c1.333,1.746 3.054,3.03 5.158,3.852c2.109,0.77 4.471,1.155 7.092,1.155c2.617,0 4.8,-0.359 6.546,-1.078c1.746,-0.719 3.083,-1.695 4.008,-2.928c0.925,-1.284 1.383,-2.747 1.383,-4.391Zm79.046,-43.297l0,-16.872l-14.021,-0l0,-20.647l-24.112,-0l-0,20.647l-11.325,-0l-0,16.872l11.325,-0l-0,43.066c-0,5.906 1,10.708 3.004,14.407c2,3.646 4.879,6.317 8.629,8.012c3.8,1.695 8.292,2.542 13.479,2.542c2.725,0 5.242,-0.205 7.55,-0.616c2.313,-0.359 4.496,-0.873 6.55,-1.541l0,-17.411c-0.875,0.154 -1.825,0.282 -2.85,0.385c-1.029,0.103 -2.258,0.154 -3.7,0.154c-2,0 -3.645,-0.231 -4.929,-0.693c-1.283,-0.514 -2.208,-1.387 -2.775,-2.62c-0.562,-1.232 -0.846,-3.004 -0.846,-5.316l0,-40.369l14.021,-0Z" style="fill:#155e97;"/><path d="M69.313,304.498l-13.99,-0l-0,-5.79l13.99,0c2.709,0 4.902,-0.442 6.581,-1.327c1.678,-0.885 2.901,-2.114 3.668,-3.688c0.791,-1.573 1.187,-3.368 1.187,-5.384c-0,-1.844 -0.396,-3.576 -1.187,-5.199c-0.767,-1.622 -1.99,-2.925 -3.668,-3.909c-1.679,-1.008 -3.872,-1.512 -6.581,-1.512l-12.372,0l-0,47.865l-6.941,-0l0,-53.691l19.313,-0c3.955,-0 7.3,0.7 10.033,2.102c2.734,1.401 4.807,3.343 6.222,5.826c1.415,2.459 2.122,5.273 2.122,8.444c-0,3.443 -0.707,6.38 -2.122,8.814c-1.415,2.434 -3.488,4.29 -6.222,5.568c-2.733,1.254 -6.078,1.881 -10.033,1.881Z" style="fill:#2a3045;fill-rule:nonzero;"/><path d="M94.665,306.047l0,-0.849c0,-2.876 0.408,-5.543 1.223,-8.002c0.815,-2.483 1.99,-4.633 3.525,-6.453c1.534,-1.844 3.392,-3.27 5.574,-4.278c2.181,-1.032 4.627,-1.548 7.336,-1.548c2.733,-0 5.191,0.516 7.373,1.548c2.206,1.008 4.076,2.434 5.61,4.278c1.559,1.82 2.745,3.97 3.56,6.453c0.816,2.459 1.223,5.126 1.223,8.002l0,0.849c0,2.876 -0.407,5.543 -1.223,8.002c-0.815,2.458 -2.001,4.609 -3.56,6.453c-1.534,1.819 -3.393,3.245 -5.574,4.278c-2.158,1.007 -4.604,1.511 -7.337,1.511c-2.733,0 -5.19,-0.504 -7.373,-1.511c-2.181,-1.033 -4.051,-2.459 -5.609,-4.278c-1.535,-1.844 -2.71,-3.995 -3.525,-6.453c-0.815,-2.459 -1.223,-5.126 -1.223,-8.002Zm6.653,-0.849l0,0.849c0,1.991 0.228,3.871 0.684,5.641c0.455,1.746 1.138,3.295 2.05,4.647c0.935,1.352 2.098,2.421 3.488,3.208c1.391,0.762 3.009,1.143 4.855,1.143c1.822,0 3.417,-0.381 4.783,-1.143c1.391,-0.787 2.542,-1.856 3.453,-3.208c0.911,-1.352 1.594,-2.901 2.05,-4.647c0.479,-1.77 0.719,-3.65 0.719,-5.641l0,-0.849c0,-1.966 -0.24,-3.822 -0.719,-5.568c-0.456,-1.77 -1.151,-3.331 -2.086,-4.683c-0.911,-1.377 -2.062,-2.458 -3.453,-3.245c-1.366,-0.787 -2.973,-1.18 -4.819,-1.18c-1.822,0 -3.428,0.393 -4.819,1.18c-1.367,0.787 -2.517,1.868 -3.452,3.245c-0.912,1.352 -1.595,2.913 -2.05,4.683c-0.456,1.746 -0.684,3.602 -0.684,5.568Z" style="fill:#2a3045;fill-rule:nonzero;"/><path d="M149.76,318.474l9.998,-32.82l4.387,0l-0.863,6.527l-10.178,33.373l-4.279,-0l0.935,-7.08Zm-6.725,-32.82l8.523,33.189l0.611,6.711l-4.495,-0l-11.293,-39.9l6.654,0Zm30.676,32.93l8.128,-32.93l6.617,0l-11.292,39.9l-4.459,-0l1.006,-6.97Zm-8.595,-32.93l9.782,32.266l1.115,7.634l-4.244,-0l-10.465,-33.447l-0.863,-6.453l4.675,0Z" style="fill:#2a3045;fill-rule:nonzero;"/><path d="M245.083,291.923l-0,33.631l-6.654,-0l0,-39.9l6.474,0l0.18,6.269Zm12.155,-6.49l-0.036,6.343c-0.551,-0.123 -1.079,-0.197 -1.582,-0.221c-0.48,-0.05 -1.031,-0.074 -1.655,-0.074c-1.534,-0 -2.889,0.246 -4.063,0.737c-1.175,0.492 -2.17,1.18 -2.985,2.065c-0.816,0.885 -1.463,1.942 -1.942,3.172c-0.456,1.204 -0.756,2.532 -0.9,3.982l-1.87,1.106c0,-2.409 0.228,-4.671 0.684,-6.785c0.479,-2.114 1.211,-3.982 2.194,-5.605c0.982,-1.647 2.229,-2.925 3.74,-3.835c1.534,-0.934 3.356,-1.401 5.466,-1.401c0.48,-0 1.031,0.061 1.654,0.184c0.624,0.099 1.055,0.209 1.295,0.332Z" style="fill:#2a3045;fill-rule:nonzero;"/><path d="M280.289,326.291c-2.709,0 -5.166,-0.467 -7.372,-1.401c-2.182,-0.959 -4.064,-2.299 -5.647,-4.02c-1.558,-1.72 -2.757,-3.761 -3.596,-6.121c-0.839,-2.36 -1.259,-4.941 -1.259,-7.744l0,-1.548c0,-3.245 0.468,-6.134 1.403,-8.666c0.935,-2.557 2.206,-4.72 3.812,-6.49c1.606,-1.771 3.429,-3.11 5.467,-4.02c2.038,-0.909 4.147,-1.364 6.329,-1.364c2.781,-0 5.179,0.491 7.193,1.475c2.038,0.983 3.704,2.36 4.999,4.13c1.295,1.745 2.253,3.81 2.877,6.195c0.623,2.36 0.935,4.941 0.935,7.744l-0,3.061l-29.059,-0l0,-5.569l22.406,0l-0,-0.516c-0.096,-1.77 -0.456,-3.491 -1.079,-5.162c-0.6,-1.672 -1.559,-3.049 -2.878,-4.13c-1.318,-1.082 -3.116,-1.623 -5.394,-1.623c-1.511,0 -2.901,0.332 -4.172,0.996c-1.27,0.639 -2.361,1.597 -3.272,2.876c-0.912,1.278 -1.619,2.839 -2.122,4.683c-0.504,1.844 -0.755,3.971 -0.755,6.38l-0,1.548c-0,1.893 0.251,3.675 0.755,5.348c0.527,1.647 1.283,3.097 2.265,4.351c1.008,1.254 2.218,2.237 3.633,2.95c1.438,0.713 3.069,1.069 4.891,1.069c2.349,-0 4.339,-0.492 5.97,-1.475c1.63,-0.983 3.057,-2.298 4.279,-3.945l4.028,3.281c-0.839,1.303 -1.906,2.545 -3.201,3.725c-1.294,1.18 -2.888,2.139 -4.782,2.876c-1.87,0.738 -4.088,1.106 -6.654,1.106Z" style="fill:#2a3045;fill-rule:nonzero;"/><path d="M213.623,326.291c-2.71,0 -5.167,-0.467 -7.373,-1.401c-2.182,-0.959 -4.064,-2.299 -5.646,-4.02c-1.559,-1.72 -2.757,-3.761 -3.597,-6.121c-0.839,-2.36 -1.258,-4.941 -1.258,-7.744l-0,-1.548c-0,-3.245 0.467,-6.134 1.402,-8.666c0.935,-2.557 2.206,-4.72 3.812,-6.49c1.607,-1.771 3.429,-3.11 5.467,-4.02c2.038,-0.909 4.148,-1.364 6.33,-1.364c2.78,-0 5.178,0.491 7.192,1.475c2.038,0.983 3.704,2.36 4.999,4.13c1.295,1.745 2.254,3.81 2.877,6.195c0.623,2.36 0.935,4.941 0.935,7.744l-0,3.061l-29.058,-0l-0,-5.569l22.405,0l-0,-0.516c-0.096,-1.77 -0.456,-3.491 -1.079,-5.162c-0.599,-1.672 -1.559,-3.049 -2.877,-4.13c-1.319,-1.082 -3.117,-1.623 -5.394,-1.623c-1.511,0 -2.902,0.332 -4.173,0.996c-1.27,0.639 -2.361,1.597 -3.272,2.876c-0.911,1.278 -1.618,2.839 -2.122,4.683c-0.503,1.844 -0.755,3.971 -0.755,6.38l-0,1.548c-0,1.893 0.252,3.675 0.755,5.348c0.527,1.647 1.283,3.097 2.266,4.351c1.007,1.254 2.218,2.237 3.632,2.95c1.439,0.713 3.069,1.069 4.891,1.069c2.35,-0 4.34,-0.492 5.97,-1.475c1.63,-0.983 3.057,-2.298 4.28,-3.945l4.028,3.281c-0.84,1.303 -1.906,2.545 -3.201,3.725c-1.295,1.18 -2.889,2.139 -4.783,2.876c-1.87,0.738 -4.088,1.106 -6.654,1.106Z" style="fill:#2a3045;fill-rule:nonzero;"/><path d="M329.198,317.81l-0,-48.897l6.689,-0l0,56.641l-6.114,-0l-0.575,-7.744Zm-26.181,-11.763l-0,-0.775c-0,-3.048 0.359,-5.814 1.078,-8.297c0.744,-2.508 1.787,-4.658 3.129,-6.453c1.367,-1.795 2.985,-3.172 4.856,-4.13c1.893,-0.984 4.003,-1.475 6.329,-1.475c2.446,-0 4.579,0.442 6.401,1.327c1.847,0.861 3.405,2.127 4.676,3.798c1.294,1.648 2.314,3.639 3.056,5.974c0.744,2.336 1.259,4.979 1.547,7.929l0,3.392c-0.264,2.925 -0.779,5.556 -1.547,7.892c-0.742,2.335 -1.762,4.326 -3.056,5.974c-1.271,1.647 -2.829,2.913 -4.676,3.798c-1.846,0.86 -4.003,1.29 -6.473,1.29c-2.277,0 -4.364,-0.504 -6.257,-1.511c-1.871,-1.008 -3.489,-2.422 -4.856,-4.241c-1.342,-1.819 -2.385,-3.958 -3.129,-6.417c-0.719,-2.483 -1.078,-5.175 -1.078,-8.075Zm6.689,-0.775l-0,0.775c-0,1.991 0.191,3.859 0.575,5.605c0.408,1.745 1.031,3.282 1.87,4.609c0.839,1.328 1.906,2.372 3.201,3.134c1.295,0.738 2.841,1.107 4.639,1.107c2.206,-0 4.016,-0.48 5.431,-1.438c1.438,-0.959 2.589,-2.225 3.452,-3.799c0.863,-1.573 1.535,-3.282 2.014,-5.125l0,-8.887c-0.288,-1.353 -0.707,-2.656 -1.258,-3.909c-0.528,-1.279 -1.223,-2.409 -2.086,-3.393c-0.839,-1.008 -1.882,-1.806 -3.129,-2.396c-1.223,-0.59 -2.673,-0.885 -4.352,-0.885c-1.822,-0 -3.392,0.393 -4.711,1.18c-1.295,0.762 -2.362,1.819 -3.201,3.171c-0.839,1.327 -1.462,2.876 -1.87,4.646c-0.384,1.745 -0.575,3.614 -0.575,5.605Z" style="fill:#2a3045;fill-rule:nonzero;"/><path d="M367.424,268.913l6.689,-0l0,48.897l-0.575,7.744l-6.114,-0l0,-56.641Zm32.979,36.359l-0,0.775c-0,2.901 -0.336,5.592 -1.007,8.076c-0.671,2.458 -1.654,4.597 -2.949,6.416c-1.295,1.819 -2.877,3.233 -4.747,4.241c-1.87,1.008 -4.016,1.511 -6.438,1.511c-2.47,0 -4.639,-0.43 -6.509,-1.29c-1.846,-0.885 -3.405,-2.151 -4.675,-3.798c-1.271,-1.648 -2.29,-3.639 -3.057,-5.974c-0.743,-2.336 -1.259,-4.966 -1.547,-7.892l0,-3.392c0.288,-2.95 0.804,-5.593 1.547,-7.929c0.767,-2.335 1.786,-4.326 3.057,-5.973c1.27,-1.672 2.829,-2.938 4.675,-3.799c1.846,-0.885 3.992,-1.327 6.437,-1.327c2.446,-0 4.615,0.491 6.51,1.475c1.894,0.958 3.476,2.335 4.747,4.13c1.295,1.795 2.278,3.946 2.949,6.453c0.671,2.483 1.007,5.249 1.007,8.297Zm-6.689,0.775l-0,-0.775c-0,-1.991 -0.18,-3.859 -0.54,-5.605c-0.359,-1.77 -0.935,-3.319 -1.726,-4.646c-0.791,-1.352 -1.834,-2.409 -3.129,-3.171c-1.294,-0.787 -2.889,-1.18 -4.783,-1.18c-1.678,-0 -3.141,0.295 -4.388,0.885c-1.222,0.59 -2.265,1.388 -3.128,2.396c-0.864,0.984 -1.571,2.114 -2.122,3.393c-0.528,1.254 -0.923,2.556 -1.187,3.909l-0,8.887c0.384,1.72 1.007,3.38 1.87,4.978c0.887,1.573 2.062,2.864 3.524,3.872c1.487,1.008 3.321,1.512 5.503,1.512c1.798,-0 3.332,-0.369 4.603,-1.107c1.295,-0.762 2.338,-1.806 3.129,-3.134c0.815,-1.327 1.415,-2.864 1.798,-4.609c0.384,-1.746 0.576,-3.614 0.576,-5.605Z" style="fill:#2a3045;fill-rule:nonzero;"/><path d="M420.793,321.424l10.825,-35.77l7.12,0l-15.608,46.058c-0.36,0.983 -0.839,2.04 -1.438,3.171c-0.576,1.156 -1.319,2.25 -2.23,3.282c-0.911,1.033 -2.014,1.869 -3.309,2.508c-1.27,0.664 -2.793,0.995 -4.567,0.995c-0.528,0 -1.199,-0.073 -2.014,-0.221c-0.815,-0.147 -1.391,-0.27 -1.726,-0.369l-0.036,-5.531c0.192,0.025 0.491,0.049 0.899,0.074c0.431,0.049 0.731,0.074 0.899,0.074c1.51,-0 2.793,-0.209 3.848,-0.627c1.055,-0.394 1.942,-1.07 2.662,-2.028c0.742,-0.935 1.378,-2.225 1.905,-3.872l2.77,-7.744Zm-7.948,-35.77l10.105,30.976l1.727,7.191l-4.784,2.507l-14.313,-40.674l7.265,0Z" style="fill:#2a3045;fill-rule:nonzero;"/><path d="M498.579,308.48l6.904,0c-0.358,3.393 -1.308,6.429 -2.841,9.109c-1.534,2.679 -3.704,4.806 -6.509,6.379c-2.804,1.549 -6.304,2.323 -10.5,2.323c-3.07,0 -5.862,-0.59 -8.379,-1.77c-2.496,-1.18 -4.641,-2.851 -6.437,-5.015c-1.8,-2.188 -3.192,-4.806 -4.175,-7.854c-0.959,-3.073 -1.438,-6.49 -1.438,-10.252l0,-5.347c0,-3.761 0.479,-7.166 1.438,-10.214c0.983,-3.073 2.387,-5.704 4.208,-7.892c1.846,-2.188 4.067,-3.872 6.654,-5.052c2.588,-1.18 5.504,-1.77 8.738,-1.77c3.958,0 7.304,0.762 10.033,2.287c2.733,1.524 4.858,3.638 6.367,6.342c1.533,2.68 2.483,5.79 2.841,9.33l-6.904,-0c-0.337,-2.508 -0.958,-4.659 -1.871,-6.454c-0.912,-1.819 -2.204,-3.22 -3.883,-4.203c-1.679,-0.984 -3.871,-1.475 -6.583,-1.475c-2.325,-0 -4.375,0.454 -6.15,1.364c-1.75,0.91 -3.225,2.2 -4.421,3.872c-1.175,1.672 -2.063,3.675 -2.663,6.011c-0.6,2.335 -0.9,4.929 -0.9,7.781l0,5.42c0,2.631 0.267,5.101 0.792,7.412c0.554,2.311 1.379,4.339 2.483,6.085c1.1,1.745 2.505,3.122 4.209,4.13c1.7,0.983 3.712,1.475 6.041,1.475c2.946,-0 5.296,-0.479 7.046,-1.438c1.75,-0.959 3.071,-2.336 3.959,-4.13c0.908,-1.795 1.558,-3.946 1.941,-6.454Z" style="fill:#2a3045;fill-rule:nonzero;"/><rect x="515.946" y="268.913" width="6.692" height="56.641" style="fill:#2a3045;fill-rule:nonzero;"/><path d="M542.021,285.654l-0,39.9l-6.692,-0l0,-39.9l6.692,0Zm-7.196,-10.583c0,-1.106 0.325,-2.041 0.975,-2.803c0.671,-0.762 1.654,-1.143 2.946,-1.143c1.271,0 2.242,0.381 2.912,1.143c0.696,0.762 1.046,1.697 1.046,2.803c0,1.057 -0.35,1.967 -1.046,2.729c-0.67,0.738 -1.641,1.106 -2.912,1.106c-1.292,0 -2.275,-0.368 -2.946,-1.106c-0.65,-0.762 -0.975,-1.672 -0.975,-2.729Z" style="fill:#2a3045;fill-rule:nonzero;"/><path d="M560.863,268.913l-0.001,56.641l-6.687,-0l-0,-56.641l6.687,-0Zm23.771,16.741l-16.975,18.623l-9.491,10.103l-0.542,-7.264l6.8,-8.334l12.083,-13.128l8.125,0Zm-6.075,39.9l-13.883,-19.028l3.454,-6.085l18.267,25.113l-7.838,-0Z" style="fill:#2a3045;fill-rule:nonzero;"/><path d="M593.083,321.94c0,-1.155 0.35,-2.127 1.046,-2.913c0.717,-0.812 1.75,-1.217 3.092,-1.217c1.341,0 2.362,0.405 3.058,1.217c0.717,0.786 1.079,1.758 1.079,2.913c0,1.131 -0.362,2.09 -1.079,2.876c-0.696,0.787 -1.716,1.18 -3.058,1.18c-1.342,0 -2.375,-0.393 -3.092,-1.18c-0.696,-0.786 -1.046,-1.745 -1.046,-2.876Z" style="fill:#2a3045;fill-rule:nonzero;"/><path d="M632.65,318.732l0,-20.54c0,-1.573 -0.313,-2.938 -0.938,-4.093c-0.599,-1.18 -1.508,-2.09 -2.733,-2.729c-1.221,-0.639 -2.733,-0.959 -4.529,-0.959c-1.679,0 -3.154,0.295 -4.425,0.885c-1.246,0.59 -2.229,1.365 -2.95,2.324c-0.696,0.958 -1.042,1.991 -1.042,3.097l-6.654,0c0,-1.426 0.363,-2.839 1.079,-4.241c0.721,-1.401 1.75,-2.667 3.092,-3.798c1.367,-1.156 3,-2.065 4.892,-2.729c1.921,-0.688 4.054,-1.032 6.404,-1.032c2.829,-0 5.321,0.491 7.479,1.475c2.183,0.983 3.883,2.47 5.108,4.462c1.246,1.966 1.867,4.437 1.867,7.412l0,18.585c0,1.328 0.108,2.741 0.325,4.241c0.242,1.499 0.588,2.79 1.042,3.872l-0,0.59l-6.938,-0c-0.337,-0.787 -0.6,-1.831 -0.792,-3.135c-0.191,-1.327 -0.287,-2.556 -0.287,-3.687Zm1.15,-17.369l0.071,4.794l-6.725,0c-1.896,0 -3.583,0.16 -5.071,0.48c-1.487,0.295 -2.733,0.749 -3.742,1.364c-1.004,0.614 -1.77,1.389 -2.3,2.323c-0.529,0.91 -0.791,1.979 -0.791,3.209c-0,1.253 0.275,2.396 0.829,3.429c0.55,1.032 1.375,1.856 2.479,2.471c1.129,0.59 2.504,0.885 4.138,0.885c2.037,-0 3.833,-0.443 5.391,-1.328c1.559,-0.885 2.796,-1.967 3.704,-3.245c0.938,-1.278 1.442,-2.52 1.513,-3.725l2.842,3.283c-0.167,1.032 -0.625,2.175 -1.367,3.429c-0.746,1.253 -1.738,2.458 -2.988,3.613c-1.22,1.131 -2.683,2.078 -4.387,2.84c-1.675,0.738 -3.571,1.106 -5.679,1.106c-2.638,0 -4.954,-0.528 -6.942,-1.585c-1.967,-1.057 -3.5,-2.471 -4.604,-4.241c-1.079,-1.795 -1.617,-3.798 -1.617,-6.011c0,-2.139 0.404,-4.019 1.221,-5.642c0.817,-1.647 1.992,-3.011 3.525,-4.093c1.533,-1.106 3.379,-1.942 5.538,-2.507c2.158,-0.566 4.566,-0.849 7.229,-0.849l7.733,0Z" style="fill:#2a3045;fill-rule:nonzero;"/><path d="M658.467,285.654l-0,39.9l-6.688,-0l0,-39.9l6.688,0Zm-7.192,-10.583c0,-1.106 0.325,-2.041 0.971,-2.803c0.671,-0.762 1.654,-1.143 2.95,-1.143c1.271,0 2.241,0.381 2.912,1.143c0.696,0.762 1.042,1.697 1.042,2.803c0,1.057 -0.346,1.967 -1.042,2.729c-0.671,0.738 -1.641,1.106 -2.912,1.106c-1.296,0 -2.279,-0.368 -2.95,-1.106c-0.646,-0.762 -0.971,-1.672 -0.971,-2.729Z" style="fill:#2a3045;fill-rule:nonzero;"/><path d="M163.159,71.141l0,165.604l-88.98,-0l-0,-120.649l-11.565,7.541l0,113.108l-12.614,-0l0,-123.322l21.218,-14.094l-0,-28.188l35.362,-21.141l56.579,21.141Zm-79.516,8.231l17.872,-10.492l0,167.861l-17.872,-0l-0,-157.369Z" style="fill:#155e97;"/></svg>